<svg width="51" height="51" viewBox="0 0 51 51" fill="none" xmlns="http://www.w3.org/2000/svg">
<rect x="0.5" y="0.5" width="50" height="50" rx="4" fill="#065AD8" fill-opacity="0.1"/>
<path d="M17.5 10.6172C13.9113 10.6172 11 13.5285 11 17.1172C11 20.7059 13.9113 23.6172 17.5 23.6172C21.0887 23.6172 24 20.7059 24 17.1172C24 13.5285 21.0887 10.6172 17.5 10.6172ZM17.5 22.7017C14.4239 22.7017 11.9155 20.1932 11.9155 17.1172C11.9155 14.0411 14.4239 11.5327 17.5 11.5327C20.5761 11.5327 23.0845 14.0411 23.0845 17.1172C23.0845 20.1932 20.5761 22.7017 17.5 22.7017Z" fill="#065AD8"/>
<path d="M17.9624 16.9344V12.9245C17.9624 12.6682 17.761 12.4668 17.5046 12.4668C17.2483 12.4668 17.0469 12.6682 17.0469 12.9245V17.1175C17.0469 17.1541 17.0469 17.1724 17.0469 17.2091C17.0469 17.2274 17.0469 17.2274 17.0652 17.2457C17.0652 17.264 17.0652 17.2823 17.0835 17.3006C17.0835 17.3189 17.1018 17.3372 17.1018 17.3372C17.1018 17.3555 17.1201 17.3555 17.1201 17.3738C17.1384 17.3921 17.1567 17.4288 17.175 17.4471L19.0976 19.3696C19.1891 19.4612 19.299 19.4978 19.4272 19.4978C19.5553 19.4978 19.6652 19.4612 19.7567 19.3696C19.9398 19.1865 19.9398 18.8936 19.7567 18.7288L17.9624 16.9344Z" fill="#065AD8"/>
<path d="M36.8245 17.9305C36.7953 17.9644 36.7672 17.9995 36.7415 18.0352C36.7403 17.9029 36.7392 17.7878 36.7392 17.6929C36.7248 16.1568 35.7013 15.3272 34.7458 15.3272C34.293 15.3272 33.8693 15.5101 33.555 15.8415C33.535 15.8628 33.515 15.8847 33.4949 15.9083C33.4949 15.792 33.4949 15.6845 33.4961 15.5867C33.4978 15.0131 33.298 14.4947 32.9333 14.1265C32.2389 13.4263 31.0207 13.447 30.3772 14.195C30.0183 14.6115 29.8288 15.2069 29.8293 15.918V16.693C28.8372 15.6718 26.7488 16.1579 26.7494 18.053V28.2799C26.7494 28.5883 26.7494 28.9864 26.7145 29.2056C26.7122 29.2044 26.7099 29.2021 26.7076 29.201C25.6503 28.4864 24.4847 27.3266 23.8584 26.7035L23.6185 26.4653C23.2046 26.0615 22.6774 25.8469 22.094 25.8469C21.4631 25.8469 20.8197 26.1115 20.4144 26.5378C20.1327 26.8335 19.9861 27.1885 20.001 27.5389C20.0377 28.3294 20.5443 28.9806 21.3515 29.7769C22.0877 30.4989 23.8738 32.7144 24.7045 34.6003C24.9112 36.0933 26.2502 37.6299 26.92 38.2231C28.6873 40.0077 30.9285 40.3823 32.4994 40.3823C34.8792 40.3823 36.9155 39.5549 37.5423 38.9957C38.8373 37.8382 40 36.6093 40 34.3155V20.0782C39.9994 17.1331 37.8286 16.7373 36.8245 17.9305ZM39.1842 34.3155C39.1842 36.2716 38.195 37.3158 37.0002 38.383C36.5543 38.7817 34.7189 39.563 32.4994 39.563C31.0836 39.563 29.0679 39.2305 27.4793 37.6271C26.7609 36.9908 25.6428 35.6169 25.506 34.4427L25.4751 34.327C24.5992 32.3019 22.7277 29.9828 21.9211 29.1918C21.2565 28.5353 20.8391 28.0239 20.8145 27.5021C20.8088 27.3784 20.8758 27.238 21.0023 27.1051C21.2553 26.8387 21.6835 26.6673 22.0929 26.6673C22.3482 26.6673 22.7226 26.734 23.0489 27.0533L23.2842 27.2863C23.9294 27.9289 25.131 29.1233 26.2519 29.8821C26.4592 30.0214 26.6446 30.0893 26.8198 30.0893C27.0339 30.0893 27.4078 29.9914 27.5165 29.3356C27.564 29.0491 27.564 28.693 27.5635 28.2805V18.053C27.5629 16.575 29.5219 16.5687 29.5225 18.0484V26.1656C29.5225 26.1777 29.5294 27.307 30.1488 27.307C30.644 27.307 30.644 26.7081 30.644 26.4527V15.9175C30.6434 15.4072 30.7636 14.997 30.9926 14.7317C31.339 14.329 31.9824 14.3284 32.3557 14.7047C32.5698 14.9204 32.682 15.2242 32.6809 15.5832C32.674 17.3086 32.6774 22.1614 32.6797 24.5771L32.6809 25.8848C32.6809 26.1978 32.6809 27.0286 33.2407 27.0286C33.7955 27.0286 33.7955 26.2248 33.7955 25.7928C33.7955 25.5011 33.7995 24.9223 33.8041 24.2003C33.8172 21.9646 33.8378 18.5875 33.7955 17.6785C33.7691 17.1153 33.8899 16.6752 34.1447 16.4059C34.7 15.8202 35.9114 16.277 35.9245 17.6998C35.9348 18.8493 35.9291 22.8846 35.9257 25.0633L35.9245 26.375C35.9245 27.3266 36.2468 27.5262 36.517 27.5262C37.0889 27.5262 37.0889 26.7024 37.0889 26.3928V19.5753C37.0884 19.13 37.216 18.7342 37.4467 18.4598C38.0398 17.755 39.1842 18.068 39.1842 20.0782V34.3155Z" fill="#065AD8"/>
</svg>
