<svg width="33" height="35" viewBox="0 0 33 35" fill="none" xmlns="http://www.w3.org/2000/svg">
<path d="M29.0262 7.9057C28.1484 7.90485 27.3068 7.55578 26.6861 6.9351C26.0655 6.31442 25.7164 5.47284 25.7156 4.59507V0H10.9221C9.7762 0 8.67727 0.455199 7.86702 1.26545C7.05676 2.07571 6.60156 3.17464 6.60156 4.32051V30.3657C6.60326 31.5104 7.05921 32.6077 7.86928 33.4166C8.67935 34.2254 9.77731 34.6797 10.9221 34.6797H28.681C29.826 34.6797 30.9242 34.2252 31.7344 33.416C32.5445 32.6068 33.0002 31.5091 33.0015 30.364V7.9057H29.0262Z" fill="#E2E5E7"/>
<path d="M32.9969 7.90569H29.0216C28.1438 7.90484 27.3022 7.55577 26.6815 6.9351C26.0609 6.31442 25.7118 5.47284 25.7109 4.59506V0L32.9969 7.90569Z" fill="#B0B7BD"/>
<path d="M6.60156 16.5H26.4015V28.7C26.4015 29.2523 25.9538 29.7 25.4015 29.7H6.60156V16.5Z" fill="#CAD1D8"/>
<rect y="14.8496" width="26.3999" height="13.3663" rx="1" fill="#576D7E"/>
<path d="M7.08594 24.7488V19.812H8.92271C10.1061 19.812 10.8393 20.4219 10.8393 21.431C10.8393 22.4692 10.0988 23.0645 8.93723 23.0645H8.06604V24.7488H7.08594ZM8.90819 20.5888H8.06604V22.2877H8.88641C9.51077 22.2877 9.83747 21.9537 9.83747 21.4383C9.83747 20.9228 9.50351 20.5888 8.90819 20.5888Z" fill="white"/>
<path d="M11.2834 24.7488V19.812H12.3143L14.1438 22.7451L14.4851 23.4202L14.4488 19.812H15.4216V24.7488H14.3979L12.5684 21.823L12.2199 21.1333L12.2635 24.7488H11.2834Z" fill="white"/>
<path d="M20.388 24.7488H19.7055L19.6257 24.1245C19.3208 24.6254 18.8053 24.8577 18.1955 24.8577C16.8379 24.8577 15.9449 23.8849 15.9449 22.2877C15.9449 20.6977 16.8379 19.7031 18.2826 19.7031C19.3062 19.7031 20.1702 20.2621 20.3952 21.3366H19.3716C19.2191 20.8066 18.8053 20.5162 18.2536 20.5162C17.4259 20.5162 16.9468 21.1842 16.9468 22.2877C16.9468 23.3912 17.4477 24.0446 18.2899 24.0446C18.8997 24.0446 19.3934 23.6961 19.4587 22.8757H18.3915V22.1352H20.388V24.7488Z" fill="white"/>
</svg>