<svg width="51" height="50" viewBox="0 0 51 50" fill="none" xmlns="http://www.w3.org/2000/svg">
<rect x="0.5" width="50" height="50" rx="4" fill="#065AD8" fill-opacity="0.1"/>
<path d="M24.8163 38.5024C24.8489 38.5269 24.8814 38.5513 24.914 38.5757C24.971 38.6164 25.0279 38.6489 25.0931 38.6734C25.15 38.6978 25.2151 38.7141 25.2884 38.7303C25.3535 38.7466 25.4268 38.7466 25.5 38.7466C25.5814 38.7466 25.6465 38.7385 25.7116 38.7303C25.7849 38.7141 25.8418 38.6978 25.9069 38.6734C25.9721 38.6489 26.029 38.6164 26.086 38.5757C26.1186 38.5513 26.1511 38.5269 26.1837 38.5024L26.2406 38.4455L38.9455 25.7406L39.0024 25.6837C39.0757 25.6023 39.1327 25.5046 39.1734 25.4069C39.2222 25.2849 39.2547 25.1465 39.2547 25C39.2547 24.7558 39.1734 24.5117 39.0106 24.3163L38.9536 24.2594L26.2406 11.5545L26.1755 11.4894C26.143 11.465 26.1104 11.4406 26.0779 11.4162C26.0209 11.3755 25.9639 11.3429 25.8988 11.3185C25.8418 11.2941 25.7767 11.2778 25.7035 11.2615C25.6384 11.2453 25.5651 11.2453 25.4919 11.2453C25.4186 11.2453 25.3454 11.2534 25.2803 11.2615C25.2151 11.2778 25.15 11.2941 25.0931 11.3185C25.0279 11.3429 24.9628 11.3755 24.914 11.4162C24.8814 11.4406 24.8489 11.465 24.8163 11.4894L24.7512 11.5545L12.0464 24.2594L11.9894 24.3163C11.965 24.3489 11.9406 24.3814 11.9162 24.414C11.8755 24.471 11.8429 24.5279 11.8185 24.5931C11.7941 24.65 11.7778 24.7151 11.7615 24.7884C11.7453 24.8535 11.7453 24.9268 11.7453 25C11.7453 25.0733 11.7534 25.1465 11.7615 25.2116C11.7778 25.2767 11.7941 25.3418 11.8185 25.4069C11.8429 25.4639 11.8755 25.529 11.9162 25.586C11.9406 25.6186 11.965 25.6511 11.9894 25.6837L12.0464 25.7406L24.7594 38.4455L24.8163 38.5024ZM24.2222 39.6093C24.1001 39.5279 23.978 39.4303 23.8722 39.3245L23.4246 38.885L11.6069 27.0673L11.1674 26.6196C11.0616 26.5138 10.9639 26.3918 10.8825 26.2697C10.8011 26.1394 10.7279 26.0092 10.6709 25.8709C10.6139 25.7325 10.5651 25.586 10.5407 25.4395C10.5081 25.293 10.5 25.1384 10.5 24.9919C10.5 24.8454 10.5163 24.6907 10.5407 24.5442C10.5651 24.3977 10.6139 24.2512 10.6709 24.1129C10.7279 23.9745 10.8011 23.8443 10.8825 23.7141C10.9639 23.592 11.0616 23.478 11.1674 23.3641L11.6069 22.9164L23.8722 10.6674C23.978 10.5616 24.1001 10.4639 24.2222 10.3825C24.3524 10.293 24.4826 10.2279 24.621 10.1709C24.7594 10.1139 24.9059 10.0733 25.0524 10.0407C25.1989 10.0081 25.3535 10 25.5 10C25.6465 10 25.8011 10.0163 25.9476 10.0407C26.0941 10.0733 26.2406 10.1139 26.379 10.1709C26.5174 10.2279 26.6476 10.3011 26.7778 10.3825C26.8999 10.4639 27.022 10.5616 27.1278 10.6674L39.3931 22.9327L39.8326 23.3722C40.2802 23.8199 40.5 24.4059 40.5 24.9919C40.5 25.2849 40.443 25.586 40.3209 25.8709C40.207 26.1394 40.0442 26.3999 39.8245 26.6115L39.385 27.051L27.5673 38.885L27.1196 39.3326C27.0138 39.4384 26.8918 39.5361 26.7697 39.6175C26.6476 39.6989 26.5092 39.7721 26.3709 39.8291C26.2325 39.8861 26.086 39.9268 25.9395 39.9593C25.793 39.9919 25.6384 40 25.4919 40C25.3454 40 25.1907 39.9837 25.0442 39.9593C24.8977 39.9349 24.7512 39.8861 24.6129 39.8291C24.4826 39.764 24.3443 39.6989 24.2222 39.6093Z" fill="#065AD8"/>
<path fill-rule="evenodd" clip-rule="evenodd" d="M22.375 19.9945L24.8818 16.8691L27.3967 19.9945H22.375Z" fill="#065AD8"/>
<path fill-rule="evenodd" clip-rule="evenodd" d="M31.7771 24.1137L32.127 20.3535L28.375 20.7116L31.7771 24.1137Z" fill="#065AD8"/>
<path d="M25.5112 19.3672V34.0009H24.2578V19.3672H25.5112Z" fill="#065AD8"/>
<path d="M30.4971 22.6645L25.2231 27.9385L24.3359 27.0514L29.6099 21.7773L30.4971 22.6645Z" fill="#065AD8"/>
</svg>
