<svg width="65" height="65" viewBox="0 0 65 65" fill="none" xmlns="http://www.w3.org/2000/svg">
<circle cx="32.5" cy="32.5" r="32.5" fill="white"/>
<path d="M51.9883 28.2192L19.6701 46.8781L13.9308 43.4214L16.7385 41.8004L46.6074 24.5555L52.5215 21.141L51.9883 28.2192Z" fill="#167CF3"/>
<path d="M46.6093 24.5551L18.4131 40.8343L13.9327 43.4209L13.8087 36.7222L46.127 18.0632L52.5234 21.1406L46.6093 24.5551Z" fill="#167CF3"/>
<path d="M38.9531 14.0008L38.9531 51.3187L33.0899 54.5607L33.0899 51.3187L33.0899 16.829L33.0899 10L38.9531 14.0008Z" fill="#167CF3"/>
<path d="M33.0937 16.829L33.0937 49.3873L33.0937 54.5607L27.2304 51.3187L27.2304 14.0008L33.0937 10L33.0937 16.829Z" fill="#167CF3"/>
<path d="M20.3242 18.0629L52.6424 36.7219L52.5185 43.4206L49.7108 41.7996L19.8418 24.5547L13.9277 21.1402L20.3242 18.0629Z" fill="#167CF3"/>
<path d="M19.8437 24.5552L48.0401 40.8343L52.5204 43.4211L46.7811 46.8778L14.4628 28.2188L13.9297 21.1407L19.8437 24.5552Z" fill="#167CF3"/>
<path d="M33.0864 18.9687L44.7353 25.6942L44.7353 39.1452L33.0864 45.8707L21.4375 39.1452L21.4375 25.6942L33.0864 18.9687Z" fill="#167CF3"/>
<path d="M32.8209 24.0748L40.1566 28.1502L33.2284 32.1673L26.0092 27.8008L32.8209 24.0748Z" fill="#FFCE22"/>
<path d="M25.9531 27.7422L33.2306 32.1669L33.2306 40.8416L25.9531 36.7662L25.9531 27.7422Z" fill="#167CF3"/>
<path d="M33.1719 32.2273L40.1582 28.0937L40.1582 36.5356L33.1719 40.7856L33.1719 32.2273Z" fill="#FFE074"/>
<path d="M33.0864 18.9687L44.7353 25.6942L44.7353 39.1452L33.0864 45.8707L21.4375 39.1452L21.4375 25.6942L33.0864 18.9687Z" fill="#167CF3"/>
<path d="M32.8209 24.0748L40.1566 28.1502L33.2284 32.1673L26.0092 27.8008L32.8209 24.0748Z" fill="#FFCE22"/>
<path d="M25.9531 27.7422L33.2306 32.1669L33.2306 40.8416L25.9531 36.7662L25.9531 27.7422Z" fill="#167CF3"/>
<path d="M33.1719 32.2273L40.1582 28.0937L40.1582 36.5356L33.1719 40.7856L33.1719 32.2273Z" fill="#FFE074"/>
<path d="M33.0864 18.9687L44.7353 25.6942L44.7353 39.1452L33.0864 45.8707L21.4375 39.1452L21.4375 25.6942L33.0864 18.9687Z" fill="white"/>
<path d="M32.8209 24.0748L40.1566 28.1502L33.2284 32.1673L26.0092 27.8008L32.8209 24.0748Z" fill="#C1CEFF"/>
<path d="M25.9531 27.7422L33.2306 32.1669L33.2306 40.8416L25.9531 36.7662L25.9531 27.7422Z" fill="#6987F8"/>
<path d="M33.1719 32.2273L40.1582 28.0937L40.1582 36.5356L33.1719 40.7856L33.1719 32.2273Z" fill="#1942DC"/>
</svg>
