<svg width="130" height="42" viewBox="0 0 130 42" fill="none" xmlns="http://www.w3.org/2000/svg">
<path d="M37.7827 16.7937L7.99197 33.9934L2.7015 30.807L5.28961 29.3128L32.8227 13.4165L38.2742 10.2691L37.7827 16.7937Z" fill="#065AD8"/>
<path d="M32.8219 13.4164L6.83069 28.4225L2.7007 30.8069L2.58645 24.632L32.3772 7.43233L38.2734 10.269L32.8219 13.4164Z" fill="#065AD8"/>
<path d="M25.7734 3.68792L25.7734 38.0873L20.3687 41.0758L20.3687 38.0873L20.3687 6.2949L20.3687 -2.36006e-07L25.7734 3.68792Z" fill="#065AD8"/>
<path d="M20.3671 6.2949L20.3672 36.307L20.3671 41.0758L14.9624 38.0873L14.9624 3.68792L20.3671 0L20.3671 6.2949Z" fill="#065AD8"/>
<path d="M8.60008 7.43234L38.3909 24.6321L38.2766 30.8069L35.6885 29.3127L8.15544 13.4165L2.70389 10.269L8.60008 7.43234Z" fill="#065AD8"/>
<path d="M8.15465 13.4165L34.1459 28.4225L38.2758 30.807L32.9853 33.9934L3.19457 16.7937L2.7031 10.2691L8.15465 13.4165Z" fill="#065AD8"/>
<path d="M20.3629 8.26611L31.1008 14.4656L31.1008 26.8647L20.3629 33.0642L9.625 26.8647L9.625 14.4656L20.3629 8.26611Z" fill="#065AD8"/>
<path d="M20.1146 12.9722L26.8765 16.7289L20.4902 20.4319L13.8356 16.4069L20.1146 12.9722Z" fill="#FFCE22"/>
<path d="M13.7891 16.3535L20.4974 20.4322L20.4974 28.4285L13.7891 24.6718L13.7891 16.3535Z" fill="#065AD8"/>
<path d="M20.4375 20.4856L26.8775 16.6753L26.8775 24.4569L20.4375 28.3746L20.4375 20.4856Z" fill="#FFE074"/>
<path d="M20.3629 8.26611L31.1008 14.4656L31.1008 26.8647L20.3629 33.0642L9.625 26.8647L9.625 14.4656L20.3629 8.26611Z" fill="#065AD8"/>
<path d="M20.1146 12.9727L26.8765 16.7294L20.4902 20.4323L13.8356 16.4074L20.1146 12.9727Z" fill="#FFCE22"/>
<path d="M13.7891 16.354L20.4974 20.4327L20.4974 28.4289L13.7891 24.6723L13.7891 16.354Z" fill="#065AD8"/>
<path d="M20.4375 20.4861L26.8775 16.6758L26.8775 24.4574L20.4375 28.3751L20.4375 20.4861Z" fill="#FFE074"/>
<path d="M20.3629 8.26611L31.1008 14.4656L31.1008 26.8647L20.3629 33.0642L9.625 26.8647L9.625 14.4656L20.3629 8.26611Z" fill="white"/>
<path d="M20.1146 12.9722L26.8765 16.7289L20.4902 20.4319L13.8356 16.4069L20.1146 12.9722Z" fill="#C1CEFF"/>
<path d="M13.7891 16.3535L20.4974 20.4322L20.4974 28.4285L13.7891 24.6718L13.7891 16.3535Z" fill="#6987F8"/>
<path d="M20.4375 20.4856L26.8775 16.6753L26.8775 24.4569L20.4375 28.3746L20.4375 20.4856Z" fill="#1942DC"/>
<path d="M54.5751 28.0696L53.6625 25.4941L48.2479 25.4941L47.3353 28.0696L44.0703 28.0696L49.0996 14.2796L52.9933 14.2796L58.0429 28.0696L54.5751 28.0696ZM50.5395 19.0249L49.1402 22.9997L52.7702 22.9997L51.3709 19.0249L50.9653 17.4634L50.5395 19.0249Z" fill="#042656"/>
<path d="M69.7048 18.7005L66.2979 18.7005C65.9126 17.3417 64.9392 16.6117 63.5602 16.6117C61.4714 16.6117 60.2749 18.3557 60.2749 21.1948C60.2749 24.0543 61.4511 25.7374 63.5602 25.7374C64.858 25.7374 65.872 25.0479 66.2573 23.7501L69.7048 23.7501C68.995 26.792 66.5412 28.3941 63.6007 28.3941C59.484 28.3941 56.949 25.6563 56.949 21.1948C56.949 16.7334 59.484 13.9551 63.6413 13.9551C66.6021 13.9551 69.1167 15.5572 69.7048 18.7005Z" fill="#042656"/>
<path d="M81.9793 22.8172C81.9793 26.2647 79.7283 28.3941 76.0983 28.3941C72.4277 28.3941 70.1969 26.2647 70.1969 22.8172L70.1969 14.2796L73.4619 14.2796L73.4619 22.8172C73.4619 24.6626 74.4353 25.778 76.0983 25.778C77.7612 25.778 78.7346 24.6626 78.7346 22.8172L78.7346 14.2796L81.9793 14.2796L81.9793 22.8172Z" fill="#042656"/>
<path d="M83.7422 28.0698L83.7422 14.2798L86.9869 14.2798L86.9869 25.4335L93.0505 25.4335L93.0505 28.0698L83.7422 28.0698Z" fill="#065AD8"/>
<path d="M93.6775 28.0698L93.6775 14.2798L103.574 14.2798L103.574 16.8553L96.9223 16.8553L96.9223 19.7552L102.783 19.7552L102.783 22.2699L96.9223 22.2699L96.9223 25.4943L103.574 25.4943L103.574 28.0698L93.6775 28.0698Z" fill="#065AD8"/>
<path d="M113.894 28.0698L112.982 25.4943L107.567 25.4943L106.655 28.0698L103.39 28.0698L108.419 14.2798L112.313 14.2798L117.362 28.0698L113.894 28.0698ZM109.859 19.0252L108.46 23L112.09 23L110.69 19.0252L110.285 17.4637L109.859 19.0252Z" fill="#065AD8"/>
<path d="M117.628 28.0698L117.628 14.2798L122.921 14.2798C127.281 14.2798 129.998 16.8958 129.998 21.1951C129.998 25.4943 127.281 28.0698 122.921 28.0698L117.628 28.0698ZM122.921 25.4335C125.294 25.4335 126.673 23.872 126.673 21.1951C126.673 18.4979 125.294 16.9161 122.921 16.9161L120.873 16.9161L120.873 25.4335L122.921 25.4335Z" fill="#065AD8"/>
</svg>
