<svg width="51" height="50" viewBox="0 0 51 50" fill="none" xmlns="http://www.w3.org/2000/svg">
<rect x="0.5" width="50" height="50" rx="4" fill="#065AD8" fill-opacity="0.1"/>
<path d="M24.9169 38.8289C25.0278 39.0503 25.2561 39.1935 25.5039 39.1935C25.7517 39.1935 25.98 39.0503 26.0909 38.8289L35.4112 26.7939C37.4461 22.5427 36.8004 17.7121 33.761 14.4895C31.5239 12.1132 28.5889 10.8047 25.5039 10.8047C22.4189 10.8047 19.4839 12.1132 17.2468 14.4895C14.2074 17.7121 13.5617 22.5427 15.5966 26.7939L24.9169 38.8289ZM18.1925 15.3879C20.1818 13.2786 22.7776 12.1132 25.5039 12.1132C28.2302 12.1132 30.8195 13.2786 32.8153 15.3879C35.4829 18.2134 36.0373 22.4711 34.2372 26.2275L25.5039 37.0712L16.7706 26.2275C14.9705 22.4646 15.5249 18.2069 18.1925 15.3814V15.3879Z" fill="#065AD8"/>
<path d="M22.663 22.4641L21.8281 23.4667L24.437 25.6346C24.5544 25.7322 24.7044 25.7843 24.8544 25.7843C24.8936 25.7843 24.9262 25.7843 24.9653 25.7778C25.1545 25.7453 25.3175 25.6346 25.4154 25.4718L29.3287 18.9616L28.2134 18.291L24.6914 24.1503L22.6695 22.4641H22.663Z" fill="#065AD8"/>
<circle cx="25.5069" cy="22.3389" r="7.20061" stroke="#065AD8" stroke-width="1.3"/>
</svg>
