<svg width="26" height="29" viewBox="0 0 26 29" fill="none" xmlns="http://www.w3.org/2000/svg">
<g id="Group">
<path id="Vector" fill-rule="evenodd" clip-rule="evenodd" d="M12.9998 0.292969C12.8499 0.293215 12.7027 0.333812 12.5738 0.410502L0.655298 7.48622C0.530419 7.5606 0.4271 7.66627 0.355539 7.79279C0.283978 7.91931 0.246651 8.06231 0.247241 8.20766H0.242188V20.7987H0.247241C0.247492 20.9432 0.285219 21.0852 0.356739 21.2108C0.42826 21.3364 0.531127 21.4413 0.655298 21.5152L12.5738 28.5909C12.7028 28.6673 12.8499 28.7077 12.9998 28.7077C13.1497 28.7077 13.2969 28.6673 13.4259 28.5909L25.3509 21.5152C25.4745 21.4409 25.5767 21.3358 25.6476 21.2102C25.7186 21.0847 25.7558 20.9429 25.7557 20.7987L25.7574 8.2305C25.7622 8.08146 25.727 7.93385 25.6556 7.80297C25.5841 7.6721 25.4789 7.56273 25.351 7.4862L13.4259 0.410486C13.297 0.333801 13.1498 0.293209 12.9998 0.292969ZM12.9998 2.09985L23.2845 8.20112L20.9031 9.61626L10.6168 3.51335L12.9998 2.09985ZM8.97967 4.48453L19.2676 10.5874L17.7202 11.5064L7.43721 5.40021L8.97967 4.48453ZM5.79519 6.37465L16.0831 12.4776L12.9998 14.3089L2.7168 8.20112L5.79519 6.37465ZM1.91375 9.67175L12.1674 15.7583V26.4054L1.91375 20.3188V9.67175ZM24.0859 9.67491V20.3187L13.8388 26.402V15.755L16.8437 13.9726V17.9242C16.8445 17.9384 16.8457 17.9525 16.8472 17.9666C16.8567 18.1659 16.9372 18.3552 17.0741 18.5004C17.0952 18.5228 17.1176 18.544 17.141 18.564C17.165 18.5845 17.19 18.6035 17.2161 18.6211C17.2424 18.6385 17.2696 18.6543 17.2977 18.6685C17.3248 18.6825 17.3526 18.695 17.381 18.706C17.3918 18.71 17.4027 18.7138 17.4137 18.7174C17.4309 18.724 17.4483 18.73 17.4659 18.7354C17.4987 18.7439 17.5319 18.7505 17.5655 18.755C17.579 18.7564 17.5926 18.7574 17.6062 18.7581C17.629 18.7608 17.6519 18.7624 17.6748 18.7632C17.6775 18.7632 17.6802 18.7632 17.683 18.7632C17.6955 18.7629 17.708 18.7624 17.7205 18.7615C17.7314 18.7612 17.7423 18.7606 17.7531 18.7598C17.7548 18.7599 17.7565 18.7599 17.7582 18.7598C17.7795 18.7574 17.8008 18.7541 17.8219 18.7501C17.8301 18.7491 17.8383 18.7481 17.8465 18.7469C17.8498 18.7459 17.8531 18.7448 17.8563 18.7437C17.88 18.7388 17.9034 18.7327 17.9265 18.7257C17.9303 18.7247 17.9341 18.7237 17.9379 18.7226C17.939 18.722 17.9402 18.7215 17.9413 18.7209C17.9441 18.7199 17.9468 18.7188 17.9496 18.7177C17.9672 18.7118 17.9846 18.7053 18.0018 18.6982C18.0051 18.6971 18.0083 18.6961 18.0116 18.695C18.0231 18.6898 18.0346 18.6843 18.0459 18.6786C18.0569 18.6733 18.0678 18.6679 18.0786 18.6622C18.089 18.6569 18.0993 18.6514 18.1095 18.6457L21.0067 16.9237C21.01 16.9221 21.0133 16.9204 21.0165 16.9187C21.081 16.8852 21.1408 16.8435 21.1944 16.7946C21.1956 16.7941 21.1968 16.7935 21.1979 16.793C21.2722 16.7251 21.3335 16.6443 21.3791 16.5546C21.3808 16.5519 21.3825 16.5492 21.3841 16.5464C21.3875 16.5389 21.3908 16.5313 21.3939 16.5237C21.3962 16.5194 21.3984 16.5151 21.4006 16.5107C21.4028 16.5053 21.405 16.4998 21.4072 16.4943C21.41 16.4878 21.4128 16.4813 21.4154 16.4747C21.4171 16.4704 21.4188 16.4661 21.4205 16.4618C21.4233 16.4542 21.4261 16.4467 21.4287 16.439C21.4292 16.4363 21.4298 16.4336 21.4303 16.4308C21.4338 16.4211 21.4371 16.4113 21.4401 16.4014C21.4401 16.4004 21.4401 16.4025 21.4401 16.4014C21.4424 16.3944 21.4447 16.3842 21.4468 16.3771C21.448 16.3733 21.4491 16.3696 21.4502 16.3658C21.4502 16.3652 21.4502 16.3663 21.4502 16.3658C21.452 16.3598 21.4537 16.3521 21.4553 16.3461C21.4565 16.3396 21.4577 16.333 21.4588 16.3265C21.4622 16.3065 21.465 16.2863 21.467 16.2661C21.4676 16.2606 21.4682 16.2552 21.4687 16.2497C21.4693 16.2437 21.4698 16.2377 21.4703 16.2317C21.471 16.2246 21.4715 16.2176 21.472 16.2105C21.472 16.2062 21.472 16.2019 21.472 16.1976C21.4729 16.1753 21.4729 16.1529 21.472 16.1306V11.2274L24.0859 9.67491ZM19.7981 12.2196V15.6978L18.5151 16.4601V12.9802L19.7981 12.2196Z" fill="#065AD8"/>
</g>
</svg>
