<svg width="26" height="26" viewBox="0 0 26 26" fill="none" xmlns="http://www.w3.org/2000/svg">
<g id="Group">
<path id="Vector" d="M13 0.5C6.10756 0.5 0.5 6.10756 0.5 13C0.5 19.8924 6.10756 25.5 13 25.5C19.8924 25.5 25.5 19.8924 25.5 13C25.5 6.10756 19.8924 0.5 13 0.5ZM13 2.375C18.8791 2.375 23.625 7.12089 23.625 13C23.625 18.8791 18.8791 23.625 13 23.625C7.12089 23.625 2.375 18.8791 2.375 13C2.375 7.12089 7.12089 2.375 13 2.375Z" fill="#065AD8"/>
<path id="Vector_2" d="M21.1408 3.88711C20.8973 3.8942 20.6661 3.99577 20.4962 4.17031L4.16322 20.5033C4.07325 20.5897 4.00142 20.6932 3.95194 20.8077C3.90246 20.9222 3.87632 21.0454 3.87505 21.1701C3.87378 21.2948 3.89741 21.4186 3.94456 21.534C3.9917 21.6495 4.06142 21.7544 4.14961 21.8426C4.23781 21.9308 4.34272 22.0005 4.4582 22.0477C4.57367 22.0948 4.6974 22.1184 4.82212 22.1172C4.94684 22.1159 5.07006 22.0898 5.18455 22.0403C5.29905 21.9908 5.40252 21.919 5.4889 21.829L21.8219 5.49599C21.9572 5.36427 22.0495 5.19479 22.0868 5.00972C22.1242 4.82466 22.1048 4.63263 22.0312 4.45877C21.9576 4.28492 21.8332 4.13733 21.6743 4.03533C21.5154 3.93333 21.3295 3.88167 21.1408 3.88711Z" fill="#065AD8"/>
<path id="Vector_3" d="M4.82799 3.88672C4.64141 3.88676 4.45909 3.94247 4.30436 4.04672C4.14962 4.15096 4.0295 4.29901 3.95938 4.4719C3.88925 4.6448 3.8723 4.83468 3.91069 5.01727C3.94909 5.19985 4.04109 5.36682 4.17491 5.49683L20.5079 21.8298C20.5943 21.9198 20.6978 21.9916 20.8123 22.0411C20.9268 22.0906 21.05 22.1167 21.1747 22.118C21.2994 22.1193 21.4232 22.0956 21.5386 22.0485C21.6541 22.0014 21.759 21.9316 21.8472 21.8434C21.9354 21.7552 22.0051 21.6503 22.0523 21.5349C22.0994 21.4194 22.123 21.2957 22.1218 21.1709C22.1205 21.0462 22.0944 20.923 22.0449 20.8085C21.9954 20.694 21.9236 20.5905 21.8336 20.5042L5.5006 4.17114C5.41321 4.08115 5.30866 4.00961 5.19312 3.96075C5.07759 3.9119 4.95343 3.88672 4.82799 3.88672Z" fill="#065AD8"/>
</g>
</svg>
