<svg width="20" height="32" viewBox="0 0 20 32" fill="none" xmlns="http://www.w3.org/2000/svg">
<path d="M11.5813 4.58066L6.66232 9.62111L4.2099 6.65448C3.85391 6.2222 3.19842 6.76184 3.55724 7.19413C6.47867 10.7315 6.35153 10.6806 6.63689 10.6806C6.92225 10.6806 6.73013 10.7682 12.1887 5.17681C12.5815 4.77561 11.974 4.18511 11.5813 4.58349V4.58066Z" fill="#065AD8"/>
<path d="M19.2336 24.3391C19.9032 23.2457 19.7224 22.7936 19.7224 17.1259C19.7224 15.8997 18.3832 15.1199 17.2954 15.7104C17.1937 14.5379 15.9054 13.8626 14.8656 14.4333C14.8232 14.0576 14.6509 13.7129 14.3853 13.4586C14.7639 12.9218 14.9871 12.2691 14.9871 11.5656V3.56133C14.9871 1.73614 13.4925 0.25 11.6532 0.25H3.58393C1.74462 0.25 0.25 1.73614 0.25 3.56133V11.5684C0.25 13.3936 1.74462 14.8797 3.58393 14.8797H9.18381V16.9225C8.04801 16.3009 6.76247 17.1739 6.76247 18.3973C6.76247 24.1074 6.48276 23.0903 8.10734 25.7461C8.46616 26.3366 8.47181 26.8084 8.47181 27.2916C7.98585 27.5826 7.67506 28.1109 7.67506 28.6901V31.3262C7.67506 31.5607 7.86436 31.75 8.09887 31.75H18.3832C18.6177 31.75 18.807 31.5607 18.807 31.3262V28.6901C18.807 28.1109 18.499 27.5854 18.0187 27.2944C18.0102 26.1247 18.1346 26.136 19.2308 24.3362L19.2336 24.3391ZM3.58111 14.035C2.2108 14.035 1.09478 12.9302 1.09478 11.5712V3.56133C1.09478 2.20233 2.2108 1.09761 3.58111 1.09761H11.6503C13.0207 1.09761 14.1367 2.20233 14.1367 3.56133V11.5684C14.1367 12.1278 13.9474 12.6392 13.6309 13.0546C13.1958 12.95 12.7975 13.0178 12.4528 13.2043C12.4528 11.5797 12.5884 10.9242 11.9724 10.3281C10.9327 9.29965 9.18381 10.054 9.18381 11.4695V14.035H3.58393H3.58111ZM17.9594 30.9052H8.52267V28.693C8.52267 28.3511 8.7487 28.0601 9.04819 27.9527C9.24879 27.8764 9.04819 27.9019 17.1655 27.9019C17.5921 27.9019 17.9594 28.2522 17.9594 28.693V30.9052ZM17.1683 27.0542H9.3166C9.3166 25.0652 7.60725 24.2656 7.60725 22.6156V18.4001C7.60725 17.6486 8.47181 17.318 8.95213 17.804C9.25727 18.112 9.18098 18.1911 9.18098 20.6463C9.18098 21.2057 10.0286 21.2057 10.0286 20.6463V11.4695C10.0286 10.7971 10.8734 10.4383 11.3763 10.9355C11.704 11.252 11.6023 11.0118 11.6023 17.7108C11.6023 18.2702 12.4499 18.2702 12.4499 17.7108V14.6198C12.4612 13.9106 13.3371 13.6083 13.8089 14.0915C14.1028 14.3938 14.0237 14.3542 14.0237 17.7108C14.0237 18.2702 14.8713 18.2702 14.8713 17.7108V15.8545C14.8713 15.4476 15.2075 15.1029 15.6172 15.086C16.0918 15.0606 16.4478 15.4335 16.4478 15.8545V18.3493C16.4478 18.9087 17.2954 18.9087 17.2954 18.3493C17.2954 17.1598 17.2954 17.2389 17.2983 17.0892C17.3293 16.4252 18.16 16.1173 18.6403 16.5947C18.9652 16.9084 18.8663 16.7897 18.8663 22.6184C18.8663 24.2826 17.1457 25.0369 17.1626 27.0571L17.1683 27.0542Z" fill="#065AD8"/>
</svg>
