<svg width="51" height="50" viewBox="0 0 51 50" fill="none" xmlns="http://www.w3.org/2000/svg">
<rect x="0.5" width="50" height="50" rx="4" fill="#065AD8" fill-opacity="0.1"/>
<path d="M25.5 14.75C19.8408 14.75 15.25 19.3408 15.25 25C15.25 30.6592 19.8408 35.25 25.5 35.25C31.1592 35.25 35.75 30.6592 35.75 25C35.75 19.3408 31.1592 14.75 25.5 14.75ZM25.5 33.8063C20.6493 33.8063 16.6937 29.8507 16.6937 25C16.6937 20.1493 20.6493 16.1937 25.5 16.1937C30.3507 16.1937 34.3063 20.1493 34.3063 25C34.3063 29.8507 30.3507 33.8063 25.5 33.8063Z" fill="#065AD8"/>
<path d="M26.2249 24.7111V18.3878C26.2249 17.9836 25.9073 17.666 25.5031 17.666C25.0989 17.666 24.7812 17.9836 24.7812 18.3878V24.9998C24.7812 25.0576 24.7812 25.0864 24.7812 25.1442C24.7812 25.1731 24.7812 25.1731 24.8101 25.2019C24.8101 25.2308 24.8101 25.2597 24.839 25.2886C24.839 25.3174 24.8679 25.3463 24.8679 25.3463C24.8679 25.3752 24.8967 25.3752 24.8967 25.404C24.9256 25.4329 24.9545 25.4907 24.9834 25.5195L28.0151 28.5512C28.1594 28.6956 28.3327 28.7533 28.5348 28.7533C28.7369 28.7533 28.9101 28.6956 29.0545 28.5512C29.3432 28.2625 29.3432 27.8005 29.0545 27.5407L26.2249 24.7111Z" fill="#065AD8"/>
</svg>
