<svg width="51" height="51" viewBox="0 0 51 51" fill="none" xmlns="http://www.w3.org/2000/svg">
<rect x="0.5" y="0.5" width="50" height="50" rx="4" fill="#065AD8" fill-opacity="0.1"/>
<path d="M35.3894 15.6199C35.277 15.5009 35.0989 15.4652 34.9517 15.5366L15.7244 24.5723C15.5695 24.6437 15.4804 24.8143 15.5037 24.9848C15.5269 25.1554 15.6547 25.2942 15.8251 25.322L24.4472 26.8054L25.431 35.1509C25.4504 35.3255 25.5821 35.4643 25.7486 35.496C25.7719 35.5 25.7912 35.5 25.8145 35.5C25.9617 35.5 26.0972 35.4167 26.1631 35.2779L35.4591 16.0721C35.5327 15.9214 35.5056 15.7429 35.3894 15.6199ZM26.0469 33.7349L25.1831 26.4128C25.1638 26.2382 25.0321 26.0994 24.8616 26.0677L17.1924 24.7548L34.2816 16.7266L26.0469 33.7349Z" fill="#065AD8"/>
</svg>
