<svg width="33" height="35" viewBox="0 0 33 35" fill="none" xmlns="http://www.w3.org/2000/svg">
<path d="M29.0249 7.9057C28.1471 7.90485 27.3055 7.55578 26.6849 6.9351C26.0642 6.31442 25.7151 5.47284 25.7143 4.59507V0H10.9208C9.77492 0 8.67599 0.455199 7.86573 1.26545C7.05548 2.07571 6.60028 3.17464 6.60028 4.32051V30.3657C6.60198 31.5104 7.05793 32.6077 7.868 33.4166C8.67807 34.2254 9.77603 34.6797 10.9208 34.6797H28.6797C29.8248 34.6797 30.923 34.2252 31.7331 33.416C32.5432 32.6068 32.9989 31.5091 33.0002 30.364V7.9057H29.0249Z" fill="#E2E5E7"/>
<path d="M32.9991 7.90569H29.0238C28.146 7.90484 27.3045 7.55577 26.6838 6.9351C26.0631 6.31442 25.714 5.47284 25.7132 4.59506V0L32.9991 7.90569Z" fill="#B0B7BD"/>
<path d="M6.60028 16.4999H26.4002V28.6999C26.4002 29.2522 25.9525 29.6999 25.4002 29.6999H6.60028V16.4999Z" fill="#CAD1D8"/>
<rect y="14.8499" width="26.3999" height="13.3663" rx="1" fill="#2C80C1"/>
<path d="M8.60511 24H7.31605V20.3636H8.61577C8.98153 20.3636 9.2964 20.4364 9.56037 20.582C9.82434 20.7264 10.0273 20.9342 10.1694 21.2053C10.3126 21.4763 10.3842 21.8007 10.3842 22.1783C10.3842 22.5571 10.3126 22.8826 10.1694 23.1548C10.0273 23.4271 9.82315 23.636 9.55682 23.7816C9.29167 23.9272 8.97443 24 8.60511 24ZM8.08487 23.3413H8.57315C8.80043 23.3413 8.9916 23.301 9.14666 23.2205C9.30291 23.1388 9.4201 23.0128 9.49822 22.8423C9.57753 22.6707 9.61719 22.4493 9.61719 22.1783C9.61719 21.9096 9.57753 21.69 9.49822 21.5195C9.4201 21.3491 9.3035 21.2236 9.14844 21.1431C8.99337 21.0626 8.8022 21.0224 8.57493 21.0224H8.08487V23.3413ZM14.2954 22.1818C14.2954 22.5784 14.2202 22.9157 14.0699 23.1939C13.9207 23.4721 13.7171 23.6845 13.4591 23.8313C13.2022 23.9769 12.9134 24.0497 12.5926 24.0497C12.2694 24.0497 11.9794 23.9763 11.7226 23.8295C11.4657 23.6828 11.2627 23.4703 11.1135 23.1921C10.9644 22.9139 10.8898 22.5772 10.8898 22.1818C10.8898 21.7853 10.9644 21.4479 11.1135 21.1697C11.2627 20.8916 11.4657 20.6797 11.7226 20.5341C11.9794 20.3873 12.2694 20.3139 12.5926 20.3139C12.9134 20.3139 13.2022 20.3873 13.4591 20.5341C13.7171 20.6797 13.9207 20.8916 14.0699 21.1697C14.2202 21.4479 14.2954 21.7853 14.2954 22.1818ZM13.5159 22.1818C13.5159 21.925 13.4774 21.7083 13.4005 21.532C13.3247 21.3556 13.2176 21.2218 13.0791 21.1307C12.9406 21.0395 12.7784 20.994 12.5926 20.994C12.4068 20.994 12.2446 21.0395 12.1061 21.1307C11.9676 21.2218 11.8599 21.3556 11.7829 21.532C11.7072 21.7083 11.6693 21.925 11.6693 22.1818C11.6693 22.4387 11.7072 22.6553 11.7829 22.8317C11.8599 23.008 11.9676 23.1418 12.1061 23.233C12.2446 23.3241 12.4068 23.3697 12.5926 23.3697C12.7784 23.3697 12.9406 23.3241 13.0791 23.233C13.2176 23.1418 13.3247 23.008 13.4005 22.8317C13.4774 22.6553 13.5159 22.4387 13.5159 22.1818ZM18.0733 21.6367H17.2956C17.2814 21.5361 17.2524 21.4467 17.2086 21.3686C17.1648 21.2893 17.1086 21.2218 17.04 21.1662C16.9713 21.1106 16.892 21.0679 16.802 21.0384C16.7132 21.0088 16.6168 20.994 16.5126 20.994C16.3244 20.994 16.1605 21.0407 16.0208 21.1342C15.8811 21.2266 15.7728 21.3615 15.6958 21.5391C15.6189 21.7154 15.5804 21.9297 15.5804 22.1818C15.5804 22.4411 15.6189 22.6589 15.6958 22.8352C15.774 23.0116 15.8829 23.1448 16.0225 23.2347C16.1622 23.3247 16.3238 23.3697 16.5073 23.3697C16.6103 23.3697 16.7056 23.3561 16.7931 23.3288C16.8819 23.3016 16.9606 23.262 17.0293 23.2099C17.098 23.1566 17.1548 23.0921 17.1998 23.0163C17.2459 22.9406 17.2779 22.8542 17.2956 22.7571L18.0733 22.7607C18.0532 22.9276 18.0029 23.0885 17.9224 23.2436C17.8431 23.3975 17.736 23.5354 17.601 23.6573C17.4673 23.7781 17.3075 23.8739 17.1216 23.945C16.937 24.0148 16.728 24.0497 16.4949 24.0497C16.1705 24.0497 15.8805 23.9763 15.6248 23.8295C15.3703 23.6828 15.1691 23.4703 15.0211 23.1921C14.8743 22.9139 14.801 22.5772 14.801 22.1818C14.801 21.7853 14.8755 21.4479 15.0247 21.1697C15.1738 20.8916 15.3762 20.6797 15.6319 20.5341C15.8876 20.3873 16.1752 20.3139 16.4949 20.3139C16.7056 20.3139 16.9009 20.3435 17.0808 20.4027C17.2619 20.4619 17.4223 20.5483 17.562 20.6619C17.7016 20.7744 17.8153 20.9123 17.9029 21.0756C17.9917 21.239 18.0485 21.426 18.0733 21.6367Z" fill="white"/>
</svg>
