<svg width="51" height="50" viewBox="0 0 51 50" fill="none" xmlns="http://www.w3.org/2000/svg">
<rect x="0.5" width="50" height="50" rx="4" fill="#065AD8" fill-opacity="0.1"/>
<path d="M17.9625 14.1211C16.4883 14.1211 15.2812 15.3108 15.2812 16.7623V25.0023V35.2398C15.2815 35.3426 15.3069 35.4438 15.3552 35.5348C15.4036 35.6259 15.4735 35.7041 15.559 35.763C15.6445 35.8218 15.7432 35.8595 15.8467 35.8729C15.9501 35.8863 16.0553 35.8749 16.1534 35.8398L19.4745 34.6448L22.7943 35.8398C22.9386 35.8918 23.0969 35.8918 23.2412 35.8398L26.561 34.6448L29.8821 35.8398C29.9805 35.876 30.0862 35.8881 30.1904 35.8752C30.2945 35.8623 30.394 35.8248 30.4802 35.7658C30.5664 35.7069 30.6368 35.6282 30.6854 35.5366C30.7341 35.445 30.7594 35.3432 30.7594 35.2398V22.6298H35.0644C35.2359 22.6292 35.4001 22.5618 35.5214 22.4424C35.6427 22.323 35.7111 22.1612 35.7118 21.9923V17.2023C35.7118 15.5199 34.3307 14.1418 32.6269 14.1211H17.9625ZM17.9625 15.4023H30.0522C29.6797 15.9093 29.4594 16.5318 29.4594 17.2023V21.9923V34.3236L26.787 33.3598C26.6427 33.3078 26.4844 33.3078 26.3401 33.3598L23.0203 34.5598L19.6992 33.3598C19.5538 33.3069 19.394 33.3069 19.2485 33.3598L16.5812 34.3236V19.9611V16.7623C16.5812 15.9978 17.186 15.4023 17.9625 15.4023ZM32.5875 15.4023C33.6115 15.4023 34.4156 16.1941 34.4156 17.2023V21.3498H30.7594V17.2023C30.7594 16.1941 31.5635 15.4023 32.5875 15.4023ZM19.0568 19.5598C18.971 19.5595 18.886 19.5759 18.8067 19.6081C18.7274 19.6402 18.6553 19.6876 18.5947 19.7473C18.534 19.807 18.486 19.878 18.4533 19.9561C18.4206 20.0342 18.404 20.1179 18.4043 20.2023C18.4046 20.2864 18.4218 20.3695 18.4547 20.4471C18.4877 20.5246 18.5359 20.595 18.5965 20.6542C18.6571 20.7134 18.7289 20.7602 18.8079 20.7921C18.8869 20.8239 18.9715 20.8402 19.0568 20.8398H26.9838C27.1553 20.8392 27.3196 20.7718 27.4409 20.6524C27.5622 20.533 27.6306 20.3712 27.6313 20.2023C27.6316 20.1183 27.6151 20.035 27.5827 19.9572C27.5504 19.8795 27.5028 19.8087 27.4427 19.7491C27.3825 19.6894 27.3111 19.642 27.2323 19.6095C27.1536 19.577 27.0691 19.5602 26.9838 19.5598H19.0568ZM19.0568 23.3998C18.971 23.3995 18.886 23.4159 18.8067 23.4481C18.7274 23.4802 18.6553 23.5276 18.5947 23.5873C18.534 23.647 18.486 23.718 18.4533 23.7961C18.4206 23.8742 18.404 23.9579 18.4043 24.0423C18.4045 24.1265 18.4215 24.2098 18.4544 24.2875C18.4873 24.3651 18.5354 24.4356 18.596 24.495C18.6566 24.5543 18.7285 24.6013 18.8076 24.6332C18.8867 24.6652 18.9714 24.6814 19.0568 24.6811H26.9838C27.1555 24.6804 27.32 24.6129 27.4413 24.4932C27.5626 24.3735 27.6309 24.2114 27.6313 24.0423C27.6316 23.9583 27.6151 23.875 27.5827 23.7972C27.5504 23.7195 27.5028 23.6487 27.4427 23.5891C27.3825 23.5294 27.3111 23.482 27.2323 23.4495C27.1536 23.417 27.0691 23.4002 26.9838 23.3998H19.0568ZM19.0568 27.2411C18.971 27.2408 18.886 27.2572 18.8067 27.2893C18.7274 27.3215 18.6553 27.3688 18.5947 27.4285C18.534 27.4883 18.486 27.5592 18.4533 27.6373C18.4206 27.7154 18.404 27.7991 18.4043 27.8836C18.4046 27.9676 18.4218 28.0508 18.4547 28.1283C18.4877 28.2058 18.5359 28.2762 18.5965 28.3354C18.6571 28.3946 18.7289 28.4415 18.8079 28.4733C18.8869 28.5052 18.9715 28.5214 19.0568 28.5211H26.9838C27.1553 28.5204 27.3196 28.4531 27.4409 28.3336C27.5622 28.2142 27.6306 28.0525 27.6313 27.8836C27.6316 27.7995 27.6151 27.7163 27.5827 27.6385C27.5504 27.5607 27.5028 27.49 27.4427 27.4303C27.3825 27.3706 27.3111 27.3232 27.2323 27.2908C27.1536 27.2583 27.0691 27.2414 26.9838 27.2411H19.0568Z" fill="#065AD8"/>
</svg>
