<svg width="51" height="50" viewBox="0 0 51 50" fill="none" xmlns="http://www.w3.org/2000/svg">
<rect x="0.5" width="50" height="50" rx="4" fill="#065AD8" fill-opacity="0.1"/>
<path d="M24.5943 33.8458L36.058 36.452C36.3626 36.5255 36.7001 36.2605 36.7011 35.9471V14.0544C36.7011 13.741 36.3626 13.476 36.058 13.5495L24.5943 16.1557C24.3696 16.2099 24.1962 16.4295 24.1954 16.6607V20.3095C24.1915 20.5848 24.4411 20.8381 24.7164 20.8381C24.9917 20.8381 25.2414 20.5848 25.2375 20.3095V17.0761L35.659 14.706V35.2955L25.2375 32.9254V29.692C25.2414 29.4166 24.9917 29.1634 24.7164 29.1634C24.4411 29.1634 24.1915 29.4166 24.1954 29.692V33.3408C24.2069 33.6152 24.374 33.775 24.5943 33.8458Z" fill="#065AD8"/>
<path d="M14.2969 25.001C14.2969 25.1216 14.3698 25.2817 14.4438 25.3594L18.6123 29.7886C18.8069 29.9898 19.1222 30.0131 19.3491 29.8089C19.552 29.6264 19.557 29.2703 19.3695 29.0721L16.0232 25.5222H33.0555C33.3433 25.5222 33.5766 25.2889 33.5766 25.0011C33.5766 24.7133 33.3433 24.48 33.0555 24.48H16.0232L19.3695 20.9301C19.557 20.7319 19.5437 20.3846 19.3491 20.1933C19.1437 19.9913 18.804 20.0093 18.6123 20.2136L14.4438 24.6428C14.3213 24.763 14.2989 24.8787 14.2969 25.001Z" fill="#065AD8"/>
</svg>
