<svg width="51" height="50" viewBox="0 0 51 50" fill="none" xmlns="http://www.w3.org/2000/svg">
<rect x="0.5" width="50" height="50" rx="4" fill="#065AD8" fill-opacity="0.1"/>
<path d="M26.4057 33.8458L14.942 36.452C14.6374 36.5255 14.2999 36.2605 14.2989 35.9471V14.0544C14.2989 13.741 14.6374 13.476 14.942 13.5495L26.4057 16.1557C26.6304 16.2099 26.8038 16.4295 26.8046 16.6607V20.3095C26.8085 20.5848 26.5589 20.8381 26.2836 20.8381C26.0083 20.8381 25.7586 20.5848 25.7625 20.3095V17.0761L15.341 14.706V35.2955L25.7625 32.9254V29.692C25.7586 29.4166 26.0083 29.1634 26.2836 29.1634C26.5589 29.1634 26.8085 29.4166 26.8046 29.692V33.3408C26.7931 33.6152 26.626 33.775 26.4057 33.8458Z" fill="#065AD8"/>
<path d="M36.7031 25.001C36.7031 25.1216 36.6302 25.2817 36.5562 25.3594L32.3877 29.7886C32.1931 29.9898 31.8778 30.0131 31.6509 29.8089C31.448 29.6264 31.443 29.2703 31.6305 29.0721L34.9768 25.5222H17.9445C17.6567 25.5222 17.4234 25.2889 17.4234 25.0011C17.4234 24.7133 17.6567 24.48 17.9445 24.48H34.9768L31.6305 20.9301C31.443 20.7319 31.4563 20.3846 31.6509 20.1933C31.8563 19.9913 32.196 20.0093 32.3877 20.2136L36.5562 24.6428C36.6787 24.763 36.7011 24.8787 36.7031 25.001Z" fill="#065AD8"/>
</svg>
