<svg width="36" height="23" viewBox="0 0 36 23" fill="none" xmlns="http://www.w3.org/2000/svg">
<path d="M35.6177 16.1412H35.2399L35.2374 15.7353C35.4478 15.6692 35.6007 15.4561 35.6862 15.0799C35.7474 14.8093 35.7817 14.4498 35.7817 14.0687C35.7817 13.0537 35.5936 12.4941 35.2254 12.3921C35.1358 11.1134 34.5311 10.3153 34.5023 10.2789C34.5023 10.2789 29.975 4.54135 29.4746 3.89459C28.8736 3.11871 27.9179 3.15825 27.8957 3.1601H23.2899C23.1055 3.1601 22.956 3.30898 22.956 3.49368V16.1412H22.3648L22.3623 2.21374C22.3018 1.73561 21.8718 0.821982 20.675 0.780594C19.454 0.738588 6.88811 0.778741 6.29138 0.786154C5.82437 0.877578 4.95213 1.35385 4.99105 2.50345C4.99877 2.73201 5.0034 3.40164 5.00587 4.32885H2.14669C1.96199 4.32885 1.8125 4.47773 1.8125 4.66243C1.8125 4.84713 1.96199 4.99662 2.14669 4.99662H5.3376C5.33883 4.99662 5.33976 4.99724 5.34068 4.99724C5.34161 4.99724 5.34346 4.99662 5.3447 4.99662H10.4904C10.6751 4.99662 10.8243 4.84713 10.8243 4.66243C10.8243 4.47773 10.6751 4.32885 10.4904 4.32885H5.67364C5.67148 3.39052 5.66654 2.71101 5.6582 2.4806C5.62978 1.63368 6.34049 1.45887 6.35624 1.44836C6.48689 1.44836 19.4432 1.40759 20.6521 1.44836C21.5565 1.47925 21.6878 2.21621 21.697 2.25512V16.1412H13.9797C13.3962 15.6791 12.6679 15.3906 11.867 15.3906C11.0661 15.3906 10.3378 15.6791 9.75408 16.1412H5.65789L5.65882 15.8786C5.6616 14.8816 5.6687 12.2982 5.67303 9.65742H6.55669C6.7414 9.65742 6.89058 9.50855 6.89058 9.32385C6.89058 9.13914 6.7414 8.98965 6.55669 8.98965H5.34038H2.35858C2.17387 8.98965 2.02469 9.13914 2.02469 9.32385C2.02469 9.50855 2.17387 9.65742 2.35858 9.65742H5.00526C5.00093 12.2982 4.99383 14.8804 4.99105 15.8774C4.99074 15.9861 4.99074 16.0695 4.99105 16.1412H4.61794C4.43354 16.1412 4.28405 16.2906 4.28405 16.4753V18.0061C4.28405 18.1902 4.43354 18.3397 4.61794 18.3397H8.49205C8.47043 18.496 8.44418 18.651 8.44418 18.8135C8.44418 20.7006 9.97955 22.2363 11.867 22.2363C13.7545 22.2363 15.2899 20.7006 15.2899 18.8135C15.2899 18.651 15.2636 18.496 15.2417 18.3397H23.9224C23.9005 18.496 23.8742 18.651 23.8742 18.8135C23.8742 20.7006 25.4096 22.2363 27.2971 22.2363C29.1846 22.2363 30.72 20.7006 30.72 18.8135C30.72 18.651 30.6937 18.496 30.6721 18.3397H35.6177C35.802 18.3397 35.9515 18.1902 35.9515 18.0061V16.4753C35.9515 16.2906 35.802 16.1412 35.6177 16.1412ZM34.591 13.5467C34.591 13.3428 34.7148 13.1717 34.8893 13.0908C34.8943 13.0914 34.8983 13.0939 34.9032 13.0939C34.9048 13.0939 34.9063 13.0939 34.9079 13.0939C34.9415 13.0939 34.9718 13.0846 35.0027 13.0753C35.154 13.4781 35.1519 14.7167 34.995 15.0879C34.7646 15.0397 34.591 14.8346 34.591 14.59V13.5467ZM23.6241 3.82787L27.9105 3.82726C27.9349 3.82849 28.5622 3.80687 28.9461 4.30291C29.4474 4.95091 33.977 10.6909 33.9766 10.6909C33.9825 10.6977 34.5045 11.4007 34.5629 12.5058C34.1848 12.7022 33.9232 13.092 33.9232 13.5467V14.59C33.9232 15.0471 34.1876 15.4394 34.5687 15.6346L34.5721 16.1412H29.4101C28.8263 15.6791 28.0983 15.3906 27.2971 15.3906C26.4959 15.3906 25.7679 15.6791 25.1844 16.1412H23.6241V3.82787ZM8.65452 17.6719H4.95213V16.8089H9.10515C8.91458 17.0715 8.7654 17.3612 8.65452 17.6719ZM11.867 21.5679C10.348 21.5679 9.11195 20.3325 9.11195 18.8135C9.11195 17.2945 10.348 16.0584 11.867 16.0584C13.386 16.0584 14.6218 17.2945 14.6218 18.8135C14.6218 20.3325 13.386 21.5679 11.867 21.5679ZM24.0846 17.6719H15.0796C14.9687 17.3612 14.8195 17.0715 14.6286 16.8089H24.5355C24.3446 17.0715 24.1955 17.3612 24.0846 17.6719ZM27.2971 21.5679C25.7781 21.5679 24.5423 20.3325 24.5423 18.8135C24.5423 17.2945 25.7781 16.0584 27.2971 16.0584C28.8161 16.0584 30.0522 17.2945 30.0522 18.8135C30.0522 20.3325 28.8161 21.5679 27.2971 21.5679ZM35.2838 17.6719H30.5096C30.3987 17.3612 30.2496 17.0715 30.059 16.8089H34.9082C34.9094 16.8089 34.9104 16.8089 34.9116 16.8089H35.2838V17.6719Z" fill="#065AD8"/>
<path d="M33.3017 11.382C33.3066 11.3814 33.3106 11.3814 33.3153 11.382C33.4993 11.382 33.6491 11.2325 33.6491 11.0484C33.6491 10.941 33.5985 10.8458 33.5204 10.7847C33.0672 10.1972 29.7417 5.88543 29.1057 5.17071C28.379 4.35283 27.4276 4.32812 27.3124 4.32812H24.3903C24.2062 4.32812 24.057 4.47638 24.0561 4.66047C24.0551 4.86926 24.0357 9.78765 24.0564 10.4122C24.0814 11.1565 24.8261 11.3715 25.2248 11.382H33.3017ZM24.7238 10.3899C24.7065 9.86981 24.7186 6.14055 24.7226 4.99589H27.3192C27.3492 4.99589 28.0633 5.00269 28.6069 5.61425C29.1283 6.20109 31.623 9.42072 32.6222 10.7143H25.2335C25.2285 10.7143 24.734 10.6982 24.7238 10.3899Z" fill="#065AD8"/>
<path d="M26.6152 12.4957C26.6152 12.3116 26.4657 12.1621 26.281 12.1621H24.7089C24.5245 12.1621 24.375 12.3116 24.375 12.4957C24.375 12.6804 24.5245 12.8299 24.7089 12.8299H26.281C26.4657 12.8299 26.6152 12.6804 26.6152 12.4957Z" fill="#065AD8"/>
<path d="M27.2964 17.1035C26.3535 17.1035 25.5859 17.8707 25.5859 18.814C25.5859 19.7567 26.3535 20.5239 27.2964 20.5239C28.2397 20.5239 29.0069 19.7567 29.0069 18.814C29.0069 17.8707 28.2397 17.1035 27.2964 17.1035ZM27.2964 19.8561C26.7216 19.8561 26.254 19.3885 26.254 18.814C26.254 18.2395 26.7216 17.7719 27.2964 17.7719C27.8716 17.7719 28.3392 18.2395 28.3392 18.814C28.3392 19.3885 27.8716 19.8561 27.2964 19.8561Z" fill="#065AD8"/>
<path d="M11.8668 17.1035C10.9235 17.1035 10.1562 17.8707 10.1562 18.814C10.1562 19.7567 10.9235 20.5239 11.8668 20.5239C12.8097 20.5239 13.5773 19.7567 13.5773 18.814C13.5773 17.8707 12.8097 17.1035 11.8668 17.1035ZM11.8668 19.8561C11.2916 19.8561 10.824 19.3885 10.824 18.814C10.824 18.2395 11.2916 17.7719 11.8668 17.7719C12.4416 17.7719 12.9092 18.2395 12.9092 18.814C12.9092 19.3885 12.4416 19.8561 11.8668 19.8561Z" fill="#065AD8"/>
<path d="M1.20204 4.32812H0.38076C0.196367 4.32812 0.046875 4.477 0.046875 4.6617C0.046875 4.8464 0.196367 4.99589 0.38076 4.99589H1.20204C1.38643 4.99589 1.53592 4.8464 1.53592 4.6617C1.53592 4.477 1.38643 4.32812 1.20204 4.32812Z" fill="#065AD8"/>
<path d="M13.6759 7.3416C13.8603 7.3416 14.0098 7.19272 14.0098 7.00802C14.0098 6.82332 13.8603 6.67383 13.6759 6.67383H9.43545C9.25075 6.67383 9.10156 6.82332 9.10156 7.00802C9.10156 7.19272 9.25075 7.3416 9.43545 7.3416H13.6759Z" fill="#065AD8"/>
<path d="M8.54904 6.67383H3.56826C3.38387 6.67383 3.23438 6.82332 3.23438 7.00802C3.23438 7.19272 3.38387 7.3416 3.56826 7.3416H8.54904C8.73344 7.3416 8.88293 7.19272 8.88293 7.00802C8.88293 6.82332 8.73344 6.67383 8.54904 6.67383Z" fill="#065AD8"/>
<path d="M7.15625 9.32443C7.15625 9.50913 7.30543 9.658 7.49013 9.658H12.4709C12.6556 9.658 12.8048 9.50913 12.8048 9.32443C12.8048 9.13973 12.6556 8.99023 12.4709 8.99023H7.49013C7.30543 8.99023 7.15625 9.13973 7.15625 9.32443Z" fill="#065AD8"/>
</svg>
