<svg width="33" height="35" viewBox="0 0 33 35" fill="none" xmlns="http://www.w3.org/2000/svg">
<path d="M29.0249 7.9057C28.1471 7.90485 27.3055 7.55578 26.6849 6.9351C26.0642 6.31442 25.7151 5.47284 25.7143 4.59507V0H10.9208C9.77492 0 8.67599 0.455199 7.86573 1.26545C7.05548 2.07571 6.60028 3.17464 6.60028 4.32051V30.3657C6.60198 31.5104 7.05793 32.6077 7.868 33.4166C8.67807 34.2254 9.77603 34.6797 10.9208 34.6797H28.6797C29.8248 34.6797 30.923 34.2252 31.7331 33.416C32.5432 32.6068 32.9989 31.5091 33.0002 30.364V7.9057H29.0249Z" fill="#E2E5E7"/>
<path d="M32.9991 7.90569H29.0238C28.146 7.90484 27.3045 7.55577 26.6838 6.9351C26.0631 6.31442 25.714 5.47284 25.7132 4.59506V0L32.9991 7.90569Z" fill="#B0B7BD"/>
<path d="M6.60028 16.4999H26.4002V28.6999C26.4002 29.2522 25.9525 29.6999 25.4002 29.6999H6.60028V16.4999Z" fill="#CAD1D8"/>
<rect y="14.8499" width="26.3999" height="13.3663" rx="1" fill="#C11EBA"/>
<path d="M7.77202 20.3636H8.53196V22.8991C8.53196 23.1335 8.47929 23.3371 8.37393 23.5099C8.26977 23.6828 8.12476 23.8159 7.93892 23.9094C7.75308 24.003 7.53705 24.0497 7.29084 24.0497C7.07185 24.0497 6.87299 24.0112 6.69425 23.9343C6.51669 23.8562 6.37583 23.7378 6.27166 23.5792C6.1675 23.4194 6.116 23.2187 6.11719 22.9773H6.88246C6.88482 23.0732 6.90436 23.1554 6.94105 23.2241C6.97893 23.2915 7.03042 23.3436 7.09553 23.3803C7.16181 23.4158 7.23994 23.4336 7.3299 23.4336C7.4246 23.4336 7.5045 23.4135 7.5696 23.3732C7.63589 23.3318 7.6862 23.2714 7.72053 23.1921C7.75485 23.1128 7.77202 23.0152 7.77202 22.8991V20.3636ZM9.16761 24V20.3636H10.6023C10.8781 20.3636 11.113 20.4163 11.3072 20.5217C11.5013 20.6258 11.6493 20.7708 11.7511 20.9567C11.854 21.1413 11.9055 21.3544 11.9055 21.5959C11.9055 21.8374 11.8535 22.0504 11.7493 22.2351C11.6451 22.4197 11.4942 22.5636 11.2965 22.6665C11.1 22.7695 10.8621 22.821 10.5827 22.821H9.66832V22.2049H10.4585C10.6064 22.2049 10.7283 22.1795 10.8242 22.1286C10.9213 22.0765 10.9935 22.0049 11.0408 21.9137C11.0894 21.8214 11.1136 21.7154 11.1136 21.5959C11.1136 21.4751 11.0894 21.3698 11.0408 21.2798C10.9935 21.1887 10.9213 21.1183 10.8242 21.0685C10.7272 21.0176 10.604 20.9922 10.4549 20.9922H9.93643V24H9.16761ZM12.4049 24V20.3636H14.8552V20.9975H13.1737V21.864H14.7291V22.4979H13.1737V23.3661H14.8623V24H12.4049ZM17.8777 21.5391C17.8528 21.4527 17.8179 21.3763 17.7729 21.31C17.7279 21.2425 17.6729 21.1857 17.6078 21.1396C17.5439 21.0922 17.4705 21.0561 17.3876 21.0312C17.3059 21.0064 17.2154 20.994 17.1159 20.994C16.9301 20.994 16.7667 21.0401 16.6259 21.1325C16.4862 21.2248 16.3773 21.3591 16.2992 21.5355C16.2211 21.7107 16.182 21.925 16.182 22.1783C16.182 22.4316 16.2205 22.647 16.2974 22.8246C16.3743 23.0021 16.4833 23.1377 16.6241 23.2312C16.765 23.3235 16.9313 23.3697 17.123 23.3697C17.2971 23.3697 17.4456 23.3389 17.5687 23.2773C17.693 23.2146 17.7877 23.1264 17.8528 23.0128C17.9191 22.8991 17.9522 22.7648 17.9522 22.6097L18.1085 22.6328H17.171V22.054H18.6926V22.5121C18.6926 22.8317 18.6252 23.1063 18.4902 23.3359C18.3553 23.5644 18.1694 23.7408 17.9327 23.8651C17.696 23.9882 17.4249 24.0497 17.1195 24.0497C16.7786 24.0497 16.4791 23.9746 16.2211 23.8242C15.963 23.6727 15.7618 23.4579 15.6174 23.1797C15.4741 22.9003 15.4025 22.5689 15.4025 22.1854C15.4025 21.8906 15.4451 21.6278 15.5304 21.397C15.6168 21.165 15.7375 20.9685 15.8926 20.8075C16.0476 20.6465 16.2282 20.524 16.4341 20.44C16.6401 20.3559 16.8632 20.3139 17.1035 20.3139C17.3095 20.3139 17.5012 20.3441 17.6788 20.4045C17.8564 20.4637 18.0138 20.5477 18.1511 20.6566C18.2896 20.7655 18.4026 20.8951 18.4902 21.0455C18.5778 21.1946 18.6341 21.3591 18.6589 21.5391H17.8777Z" fill="white"/>
</svg>
