<svg width="33" height="36" viewBox="0 0 33 36" fill="none" xmlns="http://www.w3.org/2000/svg">
<path d="M29.0262 8.58454C28.1485 8.58369 27.3069 8.23466 26.6862 7.61405C26.0655 6.99343 25.7164 6.15194 25.7156 5.27426V0.679688H10.9221C9.77621 0.679687 8.67727 1.13484 7.86702 1.94501C7.05676 2.75517 6.60156 3.85399 6.60156 4.99974V31.0421C6.60326 32.1867 7.05921 33.2839 7.86928 34.0927C8.67935 34.9015 9.77732 35.3557 10.9221 35.3557H28.681C29.8261 35.3557 30.9243 34.9013 31.7344 34.0921C32.5445 33.283 33.0003 32.1854 33.0016 31.0405V8.58454H29.0262Z" fill="#E2E5E7"/>
<path d="M32.9969 8.58454H29.0216C28.1438 8.58369 27.3022 8.23466 26.6815 7.61404C26.0609 6.99343 25.7118 6.15194 25.7109 5.27426V0.679688L32.9969 8.58454Z" fill="#B0B7BD"/>
<path d="M6.60156 17.1777H26.4016V29.3763C26.4016 29.9286 25.9538 30.3763 25.4016 30.3763H6.60156V17.1777Z" fill="#CAD1D8"/>
<rect y="15.5273" width="26.4" height="13.3649" rx="1" fill="#6EC501"/>
<path d="M6.79688 23.9016H7.76972C7.82054 24.417 8.03834 24.7219 8.4812 24.7219C8.93858 24.7219 9.19994 24.3662 9.19994 23.7709V20.4897H10.1728V23.6983C10.1728 24.8308 9.52664 25.5349 8.4812 25.5349C7.47206 25.5349 6.86222 24.9033 6.79688 23.9016Z" fill="white"/>
<path d="M10.8097 25.426V20.4897H12.6465C13.8299 20.4897 14.5631 21.0995 14.5631 22.1086C14.5631 23.1466 13.8226 23.7419 12.661 23.7419H11.7898V25.426H10.8097ZM12.632 21.2665H11.7898V22.9651H12.6102C13.2346 22.9651 13.5613 22.6312 13.5613 22.1158C13.5613 21.6004 13.2273 21.2665 12.632 21.2665Z" fill="white"/>
<path d="M19.2833 25.426H18.6009L18.521 24.8017C18.2161 25.3026 17.7007 25.5349 17.0908 25.5349C15.7332 25.5349 14.8402 24.5622 14.8402 22.9651C14.8402 21.3754 15.7332 20.3809 17.1779 20.3809C18.2016 20.3809 19.0655 20.9398 19.2906 22.0142H18.2669C18.1145 21.4843 17.7007 21.1939 17.1489 21.1939C16.3213 21.1939 15.8421 21.8617 15.8421 22.9651C15.8421 24.0685 16.343 24.7219 17.1852 24.7219C17.795 24.7219 18.2887 24.3734 18.3541 23.5531H17.2868V22.8127H19.2833V25.426Z" fill="white"/>
</svg>
