<svg width="33" height="36" viewBox="0 0 33 36" fill="none" xmlns="http://www.w3.org/2000/svg">
<path d="M29.0262 8.26032C28.1485 8.25947 27.3069 7.91044 26.6862 7.28983C26.0655 6.66922 25.7164 5.82773 25.7156 4.95005V0.355469H10.9221C9.77621 0.355469 8.67727 0.810619 7.86702 1.62079C7.05676 2.43096 6.60156 3.52977 6.60156 4.67552V30.7179C6.60326 31.8625 7.05921 32.9597 7.86928 33.7685C8.67935 34.5773 9.77732 35.0315 10.9221 35.0315H28.681C29.8261 35.0315 30.9243 34.577 31.7344 33.7679C32.5445 32.9588 33.0003 31.8612 33.0016 30.7163V8.26032H29.0262Z" fill="#E2E5E7"/>
<path d="M32.9969 8.26032H29.0216C28.1438 8.25947 27.3022 7.91044 26.6815 7.28983C26.0609 6.66921 25.7118 5.82772 25.7109 4.95004V0.355469L32.9969 8.26032Z" fill="#B0B7BD"/>
<path d="M6.60156 16.8535H26.4016V29.0521C26.4016 29.6044 25.9538 30.0521 25.4016 30.0521H6.60156V16.8535Z" fill="#CAD1D8"/>
<rect y="15.2031" width="26.4" height="13.3649" rx="1" fill="#E40202"/>
<path d="M7.08594 25.1023V20.166H8.92272C10.1061 20.166 10.8394 20.7758 10.8394 21.7848C10.8394 22.8229 10.0988 23.4181 8.93724 23.4181H8.06604V25.1023H7.08594ZM8.9082 20.9428H8.06604V22.6414H8.88642C9.51078 22.6414 9.83748 22.3075 9.83748 21.7921C9.83748 21.2767 9.50352 20.9428 8.9082 20.9428Z" fill="white"/>
<path d="M11.2834 25.1023V20.166H13.0766C14.623 20.166 15.5886 21.1025 15.5886 22.6414C15.5886 24.1804 14.623 25.1023 13.0766 25.1023H11.2834ZM13.0766 24.311C14.0277 24.311 14.594 23.694 14.594 22.6414C14.594 21.5816 14.0277 20.9573 13.0766 20.9573H12.2635V24.311H13.0766Z" fill="white"/>
<path d="M16.1119 25.1023V20.166H19.5822V20.9428H17.092V22.3365H19.3063V23.1133H17.092V25.1023H16.1119Z" fill="white"/>
</svg>
