<svg width="29" height="28" viewBox="0 0 29 28" fill="none" xmlns="http://www.w3.org/2000/svg">
<g id="Group">
<path id="Vector" d="M14.5 0C11.7311 0 9.02431 0.821086 6.72202 2.35943C4.41973 3.89777 2.62532 6.08427 1.56569 8.64243C0.506066 11.2006 0.228819 14.0155 0.769012 16.7313C1.30921 19.447 2.64258 21.9416 4.60051 23.8995C6.55845 25.8574 9.05301 27.1908 11.7687 27.731C14.4845 28.2712 17.2994 27.9939 19.8576 26.9343C22.4157 25.8747 24.6022 24.0803 26.1406 21.778C27.6789 19.4757 28.5 16.7689 28.5 14C28.5 10.287 27.025 6.72601 24.3995 4.1005C21.774 1.475 18.213 0 14.5 0ZM14.5 26C12.1266 26 9.80655 25.2962 7.83316 23.9776C5.85977 22.6591 4.3217 20.7849 3.41345 18.5922C2.5052 16.3995 2.26756 13.9867 2.73058 11.6589C3.19361 9.33114 4.33649 7.19295 6.01472 5.51472C7.69296 3.83649 9.83115 2.6936 12.1589 2.23058C14.4867 1.76755 16.8995 2.00519 19.0922 2.91345C21.2849 3.8217 23.1591 5.35977 24.4776 7.33316C25.7962 9.30655 26.5 11.6266 26.5 14C26.5 17.1826 25.2357 20.2348 22.9853 22.4853C20.7348 24.7357 17.6826 26 14.5 26Z" fill="#065AD8"/>
<path id="Vector_2" d="M21.5 13H15.5V5C15.5 4.73478 15.3946 4.48043 15.2071 4.29289C15.0196 4.10536 14.7652 4 14.5 4C14.2348 4 13.9804 4.10536 13.7929 4.29289C13.6054 4.48043 13.5 4.73478 13.5 5V14C13.5 14.2652 13.6054 14.5196 13.7929 14.7071C13.9804 14.8946 14.2348 15 14.5 15H21.5C21.7652 15 22.0196 14.8946 22.2071 14.7071C22.3946 14.5196 22.5 14.2652 22.5 14C22.5 13.7348 22.3946 13.4804 22.2071 13.2929C22.0196 13.1054 21.7652 13 21.5 13Z" fill="#065AD8"/>
</g>
</svg>
