<svg width="51" height="50" viewBox="0 0 51 50" fill="none" xmlns="http://www.w3.org/2000/svg">
<rect x="0.5" width="50" height="50" rx="4" fill="#065AD8" fill-opacity="0.1"/>
<path d="M28.1004 27.067V22.9348C28.1004 21.2248 26.7942 20.332 25.5012 20.332C24.2079 20.332 22.8984 21.2248 22.8984 22.9348V27.0667C22.8984 28.773 24.2079 29.6697 25.5012 29.6697C26.7939 29.6697 28.1004 28.7733 28.1004 27.067ZM23.9688 27.067V22.9348C23.9688 21.8782 24.7401 21.4021 25.5012 21.4021C26.2629 21.4021 27.0303 21.8782 27.0303 22.9348V27.0667C27.0303 28.1233 26.2626 28.5963 25.5012 28.5963C24.7401 28.5963 23.9688 28.1236 23.9688 27.067Z" fill="#065AD8"/>
<path d="M18.6097 28.5963C17.8486 28.5963 17.0773 28.1236 17.0773 27.0667C17.0773 26.7712 16.8376 26.5324 16.543 26.5324C16.2472 26.5324 16.0078 26.7712 16.0078 27.0667C16.0078 28.773 17.3173 29.6697 18.6097 29.6697C19.903 29.6697 21.2125 28.7733 21.2125 27.0667C21.2125 25.3048 19.8049 24.835 18.7777 24.4939C17.6614 24.1198 17.0773 23.8798 17.0773 22.9348C17.0773 21.8782 17.8486 21.4021 18.6097 21.4021C19.3714 21.4021 20.14 21.8782 20.14 22.9348C20.14 23.23 20.3791 23.4697 20.6743 23.4697C20.9734 23.4697 21.2125 23.23 21.2125 22.9348C21.2125 21.2248 19.903 20.332 18.6097 20.332C17.3173 20.332 16.0078 21.2248 16.0078 22.9348C16.0078 24.697 17.4121 25.1665 18.4396 25.5079C19.5583 25.882 20.1397 26.1184 20.1397 27.0667C20.14 28.1236 19.3714 28.5963 18.6097 28.5963Z" fill="#065AD8"/>
<path d="M32.3894 21.4021C33.1505 21.4021 33.9215 21.8782 33.9215 22.9348C33.9215 23.23 34.1615 23.4697 34.4564 23.4697C34.7516 23.4697 34.991 23.23 34.991 22.9348C34.991 21.2248 33.6815 20.332 32.3891 20.332C31.0955 20.332 29.7891 21.2248 29.7891 22.9348C29.7891 24.697 31.1942 25.1665 32.2208 25.5079C33.3371 25.882 33.9212 26.1184 33.9212 27.0667C33.9212 28.1233 33.1502 28.5963 32.3891 28.5963C31.6274 28.5963 30.8589 28.1236 30.8589 27.0667C30.8589 26.7712 30.6201 26.5324 30.3243 26.5324C30.0291 26.5324 29.7891 26.7712 29.7891 27.0667C29.7891 28.773 31.0955 29.6697 32.3891 29.6697C33.6815 29.6697 34.991 28.7733 34.991 27.0667C34.991 25.3048 33.5867 24.835 32.5592 24.4939C31.4438 24.1198 30.8592 23.8798 30.8592 22.9348C30.8592 21.8782 31.6277 21.4021 32.3894 21.4021Z" fill="#065AD8"/>
<path d="M13.25 33.266C13.25 33.5606 13.4927 33.8003 13.7882 33.8003H37.2075C37.5024 33.8003 37.7427 33.5606 37.7427 33.266C37.7427 32.9699 37.5024 32.7305 37.2075 32.7305H13.7882C13.4927 32.7305 13.25 32.9696 13.25 33.266Z" fill="#065AD8"/>
<path d="M37.7427 16.7338C37.7427 16.4386 37.5024 16.1992 37.2075 16.1992H13.7882C13.4927 16.1992 13.25 16.4386 13.25 16.7338C13.25 17.0293 13.4927 17.2687 13.7882 17.2687H37.2075C37.5024 17.2687 37.7427 17.0296 37.7427 16.7338Z" fill="#065AD8"/>
<path d="M39.9648 27.2199C39.6696 27.2199 39.4305 27.4596 39.4305 27.7548V36.0185C39.4305 38.1584 37.4352 38.237 37.2117 38.24H13.7922C13.5657 38.2367 11.5734 38.1584 11.5734 36.0185V25.5363H13.7922C14.0871 25.5363 14.3274 25.2966 14.3274 24.9981C14.3274 24.7026 14.0874 24.4629 13.7922 24.4629H11.0352C10.74 24.4629 10.5 24.7026 10.5 24.9981V36.0185C10.5 38.6246 12.6528 39.3103 13.7922 39.3103H37.2114C38.3469 39.3103 40.4997 38.6246 40.4997 36.0185V27.7551C40.4997 27.4596 40.2603 27.2199 39.9648 27.2199Z" fill="#065AD8"/>
<path d="M37.2114 10.6895H13.7922C12.6528 10.6895 10.5 11.3755 10.5 13.978V22.245C10.5 22.5408 10.74 22.7799 11.0352 22.7799C11.3304 22.7799 11.5734 22.5408 11.5734 22.245V13.978C11.5734 11.8417 13.5657 11.7625 13.7922 11.7595H37.2078C37.4352 11.7625 39.4305 11.8414 39.4305 13.978V24.4635H37.2117C36.9129 24.4635 36.6729 24.7032 36.6729 24.9987C36.6729 25.2972 36.9129 25.5369 37.2117 25.5369H39.9651C40.2606 25.5369 40.5 25.2972 40.5 24.9987V13.978C40.4997 11.3755 38.3469 10.6895 37.2114 10.6895Z" fill="#065AD8"/>
</svg>
