<svg width="33" height="35" viewBox="0 0 33 35" fill="none" xmlns="http://www.w3.org/2000/svg">
<path d="M29.0249 7.9057C28.1471 7.90485 27.3055 7.55578 26.6849 6.9351C26.0642 6.31442 25.7151 5.47284 25.7143 4.59507V0H10.9208C9.77492 0 8.67599 0.455199 7.86573 1.26545C7.05548 2.07571 6.60028 3.17464 6.60028 4.32051V30.3657C6.60198 31.5104 7.05793 32.6077 7.868 33.4166C8.67807 34.2254 9.77603 34.6797 10.9208 34.6797H28.6797C29.8248 34.6797 30.923 34.2252 31.7331 33.416C32.5432 32.6068 32.9989 31.5091 33.0002 30.364V7.9057H29.0249Z" fill="#E2E5E7"/>
<path d="M32.9991 7.90569H29.0238C28.1461 7.90484 27.3045 7.55577 26.6838 6.9351C26.0631 6.31442 25.714 5.47284 25.7132 4.59506V0L32.9991 7.90569Z" fill="#B0B7BD"/>
<path d="M6.60028 16.4999H26.4002V28.6999C26.4002 29.2522 25.9525 29.6999 25.4002 29.6999H6.60028V16.4999Z" fill="#CAD1D8"/>
<rect y="14.8499" width="26.3999" height="13.3663" rx="1" fill="#0D8837"/>
<path d="M9.03693 20.3636L9.77024 21.603H9.79865L10.5355 20.3636H11.4038L10.294 22.1818L11.4286 24H10.5444L9.79865 22.7589H9.77024L9.0245 24H8.14382L9.28196 22.1818L8.16513 20.3636H9.03693ZM11.8903 24V20.3636H12.6591V23.3661H14.218V24H11.8903ZM16.6998 21.4094C16.6856 21.2662 16.6247 21.1549 16.517 21.0756C16.4092 20.9963 16.2631 20.9567 16.0784 20.9567C15.9529 20.9567 15.847 20.9744 15.7606 21.0099C15.6742 21.0443 15.6079 21.0922 15.5617 21.1538C15.5167 21.2153 15.4942 21.2852 15.4942 21.3633C15.4919 21.4284 15.5055 21.4852 15.5351 21.5337C15.5658 21.5823 15.6079 21.6243 15.6611 21.6598C15.7144 21.6941 15.776 21.7243 15.8458 21.7504C15.9156 21.7752 15.9902 21.7965 16.0695 21.8143L16.3962 21.8924C16.5548 21.9279 16.7004 21.9753 16.833 22.0344C16.9656 22.0936 17.0804 22.1664 17.1775 22.2528C17.2745 22.3393 17.3497 22.4411 17.403 22.5582C17.4574 22.6754 17.4852 22.8098 17.4864 22.9613C17.4852 23.1838 17.4284 23.3768 17.316 23.5401C17.2047 23.7023 17.0437 23.8284 16.833 23.9183C16.6235 24.0071 16.3708 24.0515 16.0748 24.0515C15.7813 24.0515 15.5256 24.0065 15.3078 23.9165C15.0912 23.8266 14.9219 23.6934 14.8 23.517C14.6792 23.3395 14.6159 23.1199 14.61 22.8583H15.354C15.3622 22.9802 15.3972 23.082 15.4587 23.1637C15.5215 23.2442 15.6049 23.3052 15.7091 23.3466C15.8144 23.3868 15.9334 23.407 16.066 23.407C16.1962 23.407 16.3092 23.388 16.4051 23.3501C16.5022 23.3123 16.5773 23.2596 16.6306 23.1921C16.6839 23.1246 16.7105 23.0471 16.7105 22.9595C16.7105 22.8778 16.6862 22.8092 16.6377 22.7536C16.5903 22.6979 16.5205 22.6506 16.4282 22.6115C16.337 22.5724 16.2252 22.5369 16.0926 22.505L15.6966 22.4055C15.3901 22.331 15.148 22.2144 14.9704 22.0558C14.7929 21.8971 14.7047 21.6835 14.7059 21.4148C14.7047 21.1946 14.7633 21.0022 14.8817 20.8377C15.0012 20.6732 15.1652 20.5447 15.3735 20.4524C15.5818 20.3601 15.8186 20.3139 16.0837 20.3139C16.3536 20.3139 16.5892 20.3601 16.7904 20.4524C16.9928 20.5447 17.1502 20.6732 17.2627 20.8377C17.3751 21.0022 17.4331 21.1928 17.4367 21.4094H16.6998Z" fill="white"/>
</svg>
