<svg width="33" height="35" viewBox="0 0 33 35" fill="none" xmlns="http://www.w3.org/2000/svg">
<path d="M29.0249 7.9057C28.1471 7.90485 27.3055 7.55578 26.6849 6.9351C26.0642 6.31442 25.7151 5.47284 25.7143 4.59507V0H10.9208C9.77492 0 8.67599 0.455199 7.86573 1.26545C7.05548 2.07571 6.60028 3.17464 6.60028 4.32051V30.3657C6.60198 31.5104 7.05793 32.6077 7.868 33.4166C8.67807 34.2254 9.77603 34.6797 10.9208 34.6797H28.6797C29.8248 34.6797 30.923 34.2252 31.7331 33.416C32.5432 32.6068 32.9989 31.5091 33.0002 30.364V7.9057H29.0249Z" fill="#E2E5E7"/>
<path d="M32.9991 7.90569H29.0238C28.1461 7.90484 27.3045 7.55577 26.6838 6.9351C26.0631 6.31442 25.714 5.47284 25.7132 4.59506V0L32.9991 7.90569Z" fill="#B0B7BD"/>
<path d="M6.60028 16.4999H26.4002V28.6999C26.4002 29.2522 25.9525 29.6999 25.4002 29.6999H6.60028V16.4999Z" fill="#CAD1D8"/>
<rect y="14.8499" width="26.3999" height="13.3663" rx="1" fill="#0D8837"/>
<path d="M7.03693 20.3636L7.77024 21.603H7.79865L8.53551 20.3636H9.40376L8.29403 22.1818L9.42862 24H8.54439L7.79865 22.7589H7.77024L7.0245 24H6.14382L7.28196 22.1818L6.16513 20.3636H7.03693ZM9.89027 24V20.3636H10.6591V23.3661H12.218V24H9.89027ZM14.6998 21.4094C14.6856 21.2662 14.6247 21.1549 14.517 21.0756C14.4092 20.9963 14.2631 20.9567 14.0784 20.9567C13.9529 20.9567 13.847 20.9744 13.7606 21.0099C13.6742 21.0443 13.6079 21.0922 13.5617 21.1538C13.5167 21.2153 13.4942 21.2852 13.4942 21.3633C13.4919 21.4284 13.5055 21.4852 13.5351 21.5337C13.5658 21.5823 13.6079 21.6243 13.6611 21.6598C13.7144 21.6941 13.776 21.7243 13.8458 21.7504C13.9156 21.7752 13.9902 21.7965 14.0695 21.8143L14.3962 21.8924C14.5548 21.9279 14.7004 21.9753 14.833 22.0344C14.9656 22.0936 15.0804 22.1664 15.1775 22.2528C15.2745 22.3393 15.3497 22.4411 15.403 22.5582C15.4574 22.6754 15.4852 22.8098 15.4864 22.9613C15.4852 23.1838 15.4284 23.3768 15.316 23.5401C15.2047 23.7023 15.0437 23.8284 14.833 23.9183C14.6235 24.0071 14.3708 24.0515 14.0748 24.0515C13.7813 24.0515 13.5256 24.0065 13.3078 23.9165C13.0912 23.8266 12.9219 23.6934 12.8 23.517C12.6792 23.3395 12.6159 23.1199 12.61 22.8583H13.354C13.3622 22.9802 13.3972 23.082 13.4587 23.1637C13.5215 23.2442 13.6049 23.3052 13.7091 23.3466C13.8144 23.3868 13.9334 23.407 14.066 23.407C14.1962 23.407 14.3092 23.388 14.4051 23.3501C14.5022 23.3123 14.5773 23.2596 14.6306 23.1921C14.6839 23.1246 14.7105 23.0471 14.7105 22.9595C14.7105 22.8778 14.6862 22.8092 14.6377 22.7536C14.5903 22.6979 14.5205 22.6506 14.4282 22.6115C14.337 22.5724 14.2252 22.5369 14.0926 22.505L13.6966 22.4055C13.3901 22.331 13.148 22.2144 12.9704 22.0558C12.7929 21.8971 12.7047 21.6835 12.7059 21.4148C12.7047 21.1946 12.7633 21.0022 12.8817 20.8377C13.0012 20.6732 13.1652 20.5447 13.3735 20.4524C13.5818 20.3601 13.8186 20.3139 14.0837 20.3139C14.3536 20.3139 14.5892 20.3601 14.7904 20.4524C14.9928 20.5447 15.1502 20.6732 15.2627 20.8377C15.3751 21.0022 15.4331 21.1928 15.4367 21.4094H14.6998ZM16.7244 20.3636L17.4577 21.603H17.4862L18.223 20.3636H19.0913L17.9815 22.1818L19.1161 24H18.2319L17.4862 22.7589H17.4577L16.712 24H15.8313L16.9695 22.1818L15.8526 20.3636H16.7244Z" fill="white"/>
</svg>
