<svg width="24" height="29" viewBox="0 0 24 29" fill="none" xmlns="http://www.w3.org/2000/svg">
<path d="M11.4169 28.3289C11.5278 28.5503 11.7561 28.6935 12.0039 28.6935C12.2517 28.6935 12.48 28.5503 12.5909 28.3289L21.9112 16.2939C23.9461 12.0427 23.3004 7.21207 20.261 3.98949C18.0239 1.61325 15.0889 0.304688 12.0039 0.304688C8.91889 0.304688 5.98389 1.61325 3.74677 3.98949C0.707408 7.21207 0.0617074 12.0427 2.09664 16.2939L11.4169 28.3289ZM4.69249 4.88791C6.68177 2.77859 9.27761 1.61325 12.0039 1.61325C14.7302 1.61325 17.3195 2.77859 19.3153 4.88791C21.9829 7.71336 22.5373 11.9711 20.7372 15.7275L12.0039 26.5712L3.27064 15.7275C1.47051 11.9646 2.0249 7.70685 4.69249 4.8814V4.88791Z" fill="#065AD8"/>
<path d="M9.16297 11.9641L8.32812 12.9667L10.937 15.1346C11.0544 15.2322 11.2044 15.2843 11.3544 15.2843C11.3936 15.2843 11.4262 15.2843 11.4653 15.2778C11.6545 15.2453 11.8175 15.1346 11.9154 14.9718L15.8287 8.46157L14.7134 7.79102L11.1914 13.6503L9.16949 11.9641H9.16297Z" fill="#065AD8"/>
<circle cx="12.0069" cy="11.8389" r="7.20061" stroke="#065AD8" stroke-width="1.3"/>
</svg>
