<svg width="16" height="9" viewBox="0 0 16 9" fill="none" xmlns="http://www.w3.org/2000/svg">
<path d="M7.73981 8.27414L1.10231 1.30789C0.991501 1.19166 0.929687 1.03723 0.929688 0.876642C0.929688 0.716053 0.991501 0.561628 1.10231 0.445393L1.10981 0.437892C1.16352 0.381349 1.22818 0.336324 1.29985 0.305556C1.37151 0.27479 1.44869 0.258924 1.52668 0.258924C1.60467 0.258924 1.68185 0.27479 1.75352 0.305556C1.82518 0.336324 1.88984 0.381349 1.94356 0.437892L8.19356 6.99789L14.4411 0.437892C14.4948 0.381349 14.5594 0.336324 14.6311 0.305556C14.7028 0.27479 14.7799 0.258924 14.8579 0.258924C14.9359 0.258924 15.0131 0.27479 15.0848 0.305556C15.1564 0.336324 15.2211 0.381349 15.2748 0.437892L15.2823 0.445393C15.3931 0.561628 15.4549 0.716053 15.4549 0.876642C15.4549 1.03723 15.3931 1.19166 15.2823 1.30789L8.64481 8.27414C8.58644 8.33541 8.51623 8.38418 8.43845 8.41751C8.36067 8.45083 8.27693 8.46802 8.19231 8.46802C8.10769 8.46802 8.02395 8.45083 7.94616 8.41751C7.86838 8.38418 7.79818 8.33541 7.73981 8.27414Z" fill="#5E6871"/>
</svg>
