<svg width="37" height="37" viewBox="0 0 37 37" fill="none" xmlns="http://www.w3.org/2000/svg">
<g id="Group 415">
<path id="Vector" d="M16.5723 21.2765C16.7117 21.4109 16.8947 21.4785 17.0777 21.4785C17.2607 21.4785 17.4437 21.4109 17.583 21.2765L19.7274 19.2086C20.0069 18.939 20.0069 18.5034 19.7274 18.2339L19.518 18.0319L21.3664 16.2493L32.7166 27.195C33.1348 27.5975 33.6837 27.7988 34.2327 27.7988C34.7816 27.7988 35.3306 27.5975 35.7488 27.1943L35.8717 27.0764C36.2763 26.6856 36.5 26.1665 36.5 25.6137C36.5 25.0609 36.2763 24.5418 35.8717 24.1517L24.5215 13.2067L26.37 11.4241L26.5794 11.6261C26.7188 11.7605 26.9018 11.8281 27.0848 11.8281C27.2677 11.8281 27.4507 11.7605 27.5901 11.6261L29.7345 9.55814C30.014 9.28862 30.014 8.85297 29.7345 8.58345L21.8718 1.00097C21.5923 0.731447 21.1406 0.731447 20.8611 1.00097L18.7167 3.06892C18.4372 3.33844 18.4372 3.77409 18.7167 4.04361L18.9261 4.24558L12.0741 10.8534L11.8647 10.6514C11.5852 10.3819 11.1335 10.3819 10.854 10.6514L8.70961 12.7193C8.43013 12.9889 8.43013 13.4245 8.70961 13.694L16.5723 21.2765ZM34.861 25.127C34.9961 25.2566 35.0704 25.4296 35.0704 25.6144C35.0704 25.7991 34.9961 25.9715 34.861 26.1017L34.738 26.2196C34.4586 26.4891 34.0068 26.4884 33.7273 26.2196L22.3771 15.2746L23.5108 14.1814L34.861 25.127ZM21.3664 2.46301L28.2184 9.0708L27.0848 10.1641L26.8753 9.96208L20.4422 3.75824L20.2328 3.55627L21.3664 2.46301ZM19.9368 5.22027L25.3593 10.4494L18.5073 17.0572L13.0849 11.8281L19.9368 5.22027ZM11.3593 12.1134L11.5688 12.3154L18.0019 18.5193L18.2113 18.7212L17.0777 19.8145L10.2257 13.2067L11.3593 12.1134Z" fill="#065AD8"/>
<g id="Group">
<path id="Vector_2" d="M2.8489 36.2018H22.3112C23.6064 36.2018 24.6601 35.1482 24.6601 33.8529C24.6601 32.6731 23.7823 31.7027 22.6467 31.5382V30.1618C22.6467 29.0518 21.7434 28.1484 20.6334 28.1484H4.52668C3.41666 28.1484 2.51334 29.0518 2.51334 30.1618V31.5382C1.37782 31.7027 0.5 32.6731 0.5 33.8529C0.5 35.1482 1.55365 36.2018 2.8489 36.2018ZM4.52668 29.4907H20.6334C21.0039 29.4907 21.3045 29.792 21.3045 30.1618V31.504H3.85557V30.1618C3.85557 29.792 4.15623 29.4907 4.52668 29.4907ZM2.8489 32.8462H22.3112C22.8662 32.8462 23.3179 33.2979 23.3179 33.8529C23.3179 34.4079 22.8662 34.8596 22.3112 34.8596H2.8489C2.29389 34.8596 1.84223 34.4079 1.84223 33.8529C1.84223 33.2979 2.29389 32.8462 2.8489 32.8462Z" fill="#065AD8"/>
<path id="Vector_3" d="M11.9062 24.1223V25.4645C11.9062 25.835 12.2062 26.1356 12.5774 26.1356C12.9485 26.1356 13.2485 25.835 13.2485 25.4645V24.1223C13.2485 23.7518 12.9485 23.4512 12.5774 23.4512C12.2062 23.4512 11.9062 23.7518 11.9062 24.1223Z" fill="#065AD8"/>
<path id="Vector_4" d="M16.1328 24.9898L14.7906 26.332C14.5281 26.5944 14.5281 27.0186 14.7906 27.281C14.9214 27.4118 15.0932 27.4776 15.265 27.4776C15.4368 27.4776 15.6086 27.4118 15.7395 27.281L17.0817 25.9387C17.3441 25.6763 17.3441 25.2522 17.0817 24.9898C16.8193 24.7274 16.3952 24.7274 16.1328 24.9898Z" fill="#065AD8"/>
<path id="Vector_5" d="M8.07962 24.9898C7.81721 25.2522 7.81721 25.6763 8.07962 25.9387L9.42184 27.281C9.55271 27.4118 9.72452 27.4776 9.89632 27.4776C10.0681 27.4776 10.2399 27.4118 10.3708 27.281C10.6332 27.0186 10.6332 26.5944 10.3708 26.332L9.02857 24.9898C8.76617 24.7274 8.34202 24.7274 8.07962 24.9898Z" fill="#065AD8"/>
</g>
</g>
</svg>
