<svg width="27" height="27" viewBox="0 0 27 27" fill="none" xmlns="http://www.w3.org/2000/svg">
<path id="Vector" d="M13.5 26.5C6.33162 26.5 0.5 20.6683 0.5 13.5001C0.5 6.33184 6.33162 0.5 13.5 0.5C20.6683 0.5 26.5 6.33184 26.5 13.5001C26.5 20.6683 20.6684 26.5 13.5 26.5ZM13.5 1.99114C7.15396 1.99114 1.99098 7.15419 1.99098 13.5003C1.99098 19.8464 7.15396 25.009 13.5 25.009C19.846 25.009 25.009 19.8464 25.009 13.5003C25.009 7.15416 19.846 1.99114 13.5 1.99114ZM11.3778 18.5636C11.2799 18.5636 11.183 18.5443 11.0925 18.5068C11.0021 18.4693 10.9199 18.4143 10.8508 18.345L6.5335 14.0274C6.46426 13.9582 6.40933 13.876 6.37186 13.7856C6.33438 13.6951 6.3151 13.5982 6.3151 13.5003C6.3151 13.4024 6.33438 13.3055 6.37186 13.215C6.40933 13.1246 6.46426 13.0424 6.5335 12.9732C6.6027 12.904 6.68487 12.849 6.77531 12.8116C6.86575 12.7741 6.96269 12.7548 7.06058 12.7548C7.15848 12.7548 7.25541 12.7741 7.34585 12.8116C7.43629 12.849 7.51846 12.904 7.58766 12.9732L11.3778 16.7633L19.3005 8.84113C19.3697 8.77189 19.4519 8.71696 19.5423 8.67948C19.6327 8.64201 19.7297 8.62272 19.8276 8.62272C19.9255 8.62272 20.0224 8.64201 20.1128 8.67948C20.2033 8.71696 20.2855 8.77189 20.3547 8.84113C20.4239 8.91033 20.4788 8.9925 20.5163 9.08294C20.5538 9.17338 20.5731 9.27032 20.5731 9.36822C20.5731 9.46611 20.5538 9.56305 20.5163 9.65349C20.4788 9.74393 20.4239 9.8261 20.3547 9.8953L11.9049 18.3448C11.7652 18.4848 11.5756 18.5634 11.3778 18.5636Z" fill="#065AD8"/>
</svg>
