<svg width="17" height="18" viewBox="0 0 17 18" fill="none" xmlns="http://www.w3.org/2000/svg">
<path d="M5.1 0V2.57143H11.9V0H13.6V2.57143H17V18H0V2.57143H3.4V0H5.1ZM1.7 4.28571V6.85714H15.3V4.28571H1.7ZM15.3 8.57143H1.7V16.2857H15.3V8.57143ZM4.25 10.2857H5.9534V12.0034H4.25V10.2857ZM7.65 10.2857H9.3534V12.0034H7.65V10.2857ZM11.05 10.2857H12.7534V12.0034H11.05V10.2857ZM4.25 12.8571H5.9534V14.5749H4.25V12.8571ZM7.65 12.8571H9.3534V14.5749H7.65V12.8571ZM11.05 12.8571H12.7534V14.5749H11.05V12.8571Z" fill="#C9D3DC"/>
</svg>
