<svg width="22" height="21" viewBox="0 0 22 21" fill="none" xmlns="http://www.w3.org/2000/svg">
<path d="M11 0.25C5.34084 0.25 0.75 4.84084 0.75 10.5C0.75 16.1592 5.34084 20.75 11 20.75C16.6592 20.75 21.25 16.1592 21.25 10.5C21.25 4.84084 16.6592 0.25 11 0.25ZM11 19.3063C6.1493 19.3063 2.19366 15.3507 2.19366 10.5C2.19366 5.6493 6.1493 1.69366 11 1.69366C15.8507 1.69366 19.8063 5.6493 19.8063 10.5C19.8063 15.3507 15.8507 19.3063 11 19.3063Z" fill="#065AD8"/>
<path d="M11.7249 10.2111V3.88785C11.7249 3.48362 11.4073 3.16602 11.0031 3.16602C10.5989 3.16602 10.2812 3.48362 10.2812 3.88785V10.4998C10.2812 10.5576 10.2812 10.5864 10.2812 10.6442C10.2812 10.6731 10.2812 10.6731 10.3101 10.7019C10.3101 10.7308 10.3101 10.7597 10.339 10.7886C10.339 10.8174 10.3679 10.8463 10.3679 10.8463C10.3679 10.8752 10.3967 10.8752 10.3967 10.904C10.4256 10.9329 10.4545 10.9907 10.4834 11.0195L13.5151 14.0512C13.6594 14.1956 13.8327 14.2533 14.0348 14.2533C14.2369 14.2533 14.4101 14.1956 14.5545 14.0512C14.8432 13.7625 14.8432 13.3005 14.5545 13.0407L11.7249 10.2111Z" fill="#065AD8"/>
</svg>
