<svg width="20" height="21" viewBox="0 0 20 21" fill="none" xmlns="http://www.w3.org/2000/svg">
<path d="M19.8894 0.619929C19.777 0.500934 19.5989 0.465236 19.4517 0.536633L0.224439 9.57231C0.0695061 9.6437 -0.0195806 9.81426 0.00365939 9.98482C0.0268994 10.1554 0.154719 10.2942 0.325146 10.322L8.94719 11.8054L9.93102 20.1509C9.95038 20.3255 10.0821 20.4643 10.2486 20.496C10.2719 20.5 10.2912 20.5 10.3145 20.5C10.4617 20.5 10.5972 20.4167 10.6631 20.2779L19.9591 1.07211C20.0327 0.921383 20.0056 0.742891 19.8894 0.619929ZM10.5469 18.7349L9.68312 11.4128C9.66376 11.2382 9.53206 11.0994 9.36164 11.0677L1.69243 9.75477L18.7816 1.72658L10.5469 18.7349Z" fill="#065AD8"/>
</svg>
