<svg width="33" height="35" viewBox="0 0 33 35" fill="none" xmlns="http://www.w3.org/2000/svg">
<path d="M29.0249 7.9057C28.1471 7.90485 27.3055 7.55578 26.6849 6.9351C26.0642 6.31442 25.7151 5.47284 25.7143 4.59507V0H10.9208C9.77492 0 8.67599 0.455199 7.86573 1.26545C7.05548 2.07571 6.60028 3.17464 6.60028 4.32051V30.3657C6.60198 31.5104 7.05793 32.6077 7.868 33.4166C8.67807 34.2254 9.77603 34.6797 10.9208 34.6797H28.6797C29.8248 34.6797 30.923 34.2252 31.7331 33.416C32.5432 32.6068 32.9989 31.5091 33.0002 30.364V7.9057H29.0249Z" fill="#E2E5E7"/>
<path d="M32.9991 7.90569H29.0238C28.146 7.90484 27.3045 7.55577 26.6838 6.9351C26.0631 6.31442 25.714 5.47284 25.7132 4.59506V0L32.9991 7.90569Z" fill="#B0B7BD"/>
<path d="M6.60028 16.4999H26.4002V28.6999C26.4002 29.2522 25.9525 29.6999 25.4002 29.6999H6.60028V16.4999Z" fill="#CAD1D8"/>
<rect y="14.8499" width="26.3999" height="13.3663" rx="1" fill="#412CC1"/>
<path d="M6.60511 24H5.31605V20.3636H6.61577C6.98153 20.3636 7.2964 20.4364 7.56037 20.582C7.82434 20.7264 8.02734 20.9342 8.16939 21.2053C8.31262 21.4763 8.38423 21.8007 8.38423 22.1783C8.38423 22.5571 8.31262 22.8826 8.16939 23.1548C8.02734 23.4271 7.82315 23.636 7.55682 23.7816C7.29167 23.9272 6.97443 24 6.60511 24ZM6.08487 23.3413H6.57315C6.80043 23.3413 6.9916 23.301 7.14666 23.2205C7.30291 23.1388 7.4201 23.0128 7.49822 22.8423C7.57753 22.6707 7.61719 22.4493 7.61719 22.1783C7.61719 21.9096 7.57753 21.69 7.49822 21.5195C7.4201 21.3491 7.3035 21.2236 7.14844 21.1431C6.99337 21.0626 6.8022 21.0224 6.57493 21.0224H6.08487V23.3413ZM12.2954 22.1818C12.2954 22.5784 12.2202 22.9157 12.0699 23.1939C11.9207 23.4721 11.7171 23.6845 11.4591 23.8313C11.2022 23.9769 10.9134 24.0497 10.5926 24.0497C10.2694 24.0497 9.97943 23.9763 9.72257 23.8295C9.4657 23.6828 9.2627 23.4703 9.11355 23.1921C8.9644 22.9139 8.88983 22.5772 8.88983 22.1818C8.88983 21.7853 8.9644 21.4479 9.11355 21.1697C9.2627 20.8916 9.4657 20.6797 9.72257 20.5341C9.97943 20.3873 10.2694 20.3139 10.5926 20.3139C10.9134 20.3139 11.2022 20.3873 11.4591 20.5341C11.7171 20.6797 11.9207 20.8916 12.0699 21.1697C12.2202 21.4479 12.2954 21.7853 12.2954 22.1818ZM11.5159 22.1818C11.5159 21.925 11.4774 21.7083 11.4005 21.532C11.3247 21.3556 11.2176 21.2218 11.0791 21.1307C10.9406 21.0395 10.7784 20.994 10.5926 20.994C10.4068 20.994 10.2446 21.0395 10.1061 21.1307C9.9676 21.2218 9.85988 21.3556 9.78294 21.532C9.70718 21.7083 9.6693 21.925 9.6693 22.1818C9.6693 22.4387 9.70718 22.6553 9.78294 22.8317C9.85988 23.008 9.9676 23.1418 10.1061 23.233C10.2446 23.3241 10.4068 23.3697 10.5926 23.3697C10.7784 23.3697 10.9406 23.3241 11.0791 23.233C11.2176 23.1418 11.3247 23.008 11.4005 22.8317C11.4774 22.6553 11.5159 22.4387 11.5159 22.1818ZM16.0733 21.6367H15.2956C15.2814 21.5361 15.2524 21.4467 15.2086 21.3686C15.1648 21.2893 15.1086 21.2218 15.04 21.1662C14.9713 21.1106 14.892 21.0679 14.802 21.0384C14.7132 21.0088 14.6168 20.994 14.5126 20.994C14.3244 20.994 14.1605 21.0407 14.0208 21.1342C13.8811 21.2266 13.7728 21.3615 13.6958 21.5391C13.6189 21.7154 13.5804 21.9297 13.5804 22.1818C13.5804 22.4411 13.6189 22.6589 13.6958 22.8352C13.774 23.0116 13.8829 23.1448 14.0225 23.2347C14.1622 23.3247 14.3238 23.3697 14.5073 23.3697C14.6103 23.3697 14.7056 23.3561 14.7931 23.3288C14.8819 23.3016 14.9606 23.262 15.0293 23.2099C15.098 23.1566 15.1548 23.0921 15.1998 23.0163C15.2459 22.9406 15.2779 22.8542 15.2956 22.7571L16.0733 22.7607C16.0532 22.9276 16.0029 23.0885 15.9224 23.2436C15.8431 23.3975 15.736 23.5354 15.601 23.6573C15.4673 23.7781 15.3075 23.8739 15.1216 23.945C14.937 24.0148 14.728 24.0497 14.4949 24.0497C14.1705 24.0497 13.8805 23.9763 13.6248 23.8295C13.3703 23.6828 13.1691 23.4703 13.0211 23.1921C12.8743 22.9139 12.801 22.5772 12.801 22.1818C12.801 21.7853 12.8755 21.4479 13.0247 21.1697C13.1738 20.8916 13.3762 20.6797 13.6319 20.5341C13.8876 20.3873 14.1752 20.3139 14.4949 20.3139C14.7056 20.3139 14.9009 20.3435 15.0808 20.4027C15.2619 20.4619 15.4223 20.5483 15.562 20.6619C15.7016 20.7744 15.8153 20.9123 15.9029 21.0756C15.9917 21.239 16.0485 21.426 16.0733 21.6367ZM17.2674 20.3636L18.0007 21.603H18.0291L18.766 20.3636H19.6342L18.5245 22.1818L19.6591 24H18.7749L18.0291 22.7589H18.0007L17.255 24H16.3743L17.5124 22.1818L16.3956 20.3636H17.2674Z" fill="white"/>
</svg>
