<svg width="60" height="60" viewBox="0 0 60 60" fill="none" xmlns="http://www.w3.org/2000/svg">
<path d="M9.88352 17.2962H49.4176" stroke="#C83000" stroke-width="2.94" stroke-linecap="round" stroke-linejoin="round"/>
<path d="M24.7088 27.1797V42.005" stroke="#C83000" stroke-width="2.94" stroke-linecap="round" stroke-linejoin="round"/>
<path d="M34.5923 27.1797V42.005" stroke="#C83000" stroke-width="2.94" stroke-linecap="round" stroke-linejoin="round"/>
<path d="M12.3544 17.2962L14.8253 46.9467C14.8253 48.2574 15.3459 49.5143 16.2727 50.4411C17.1994 51.3678 18.4564 51.8885 19.767 51.8885H39.5341C40.8447 51.8885 42.1017 51.3678 43.0284 50.4411C43.9552 49.5143 44.4758 48.2574 44.4758 46.9467L46.9467 17.2962" stroke="#C83000" stroke-width="2.94" stroke-linecap="round" stroke-linejoin="round"/>
<path d="M22.2379 17.2962V9.88352C22.2379 9.2282 22.4982 8.59972 22.9616 8.13634C23.425 7.67296 24.0535 7.41264 24.7088 7.41264H34.5923C35.2476 7.41264 35.8761 7.67296 36.3395 8.13634C36.8029 8.59972 37.0632 9.2282 37.0632 9.88352V17.2962" stroke="#C83000" stroke-width="2.94" stroke-linecap="round" stroke-linejoin="round"/>
</svg>
