<svg width="28" height="25" viewBox="0 0 28 25" fill="none" xmlns="http://www.w3.org/2000/svg">
<g id="Live (Tower)">
<path id="Vector" d="M13.9926 5.72071C12.7751 5.71948 11.6006 6.1707 10.697 6.98676C9.79345 7.80282 9.22535 8.9255 9.10299 10.1369C8.98063 11.3482 9.31274 12.5618 10.0349 13.5421C10.757 14.5224 11.8175 15.1994 13.0107 15.4417V23.3952C13.0107 23.6556 13.1142 23.9053 13.2983 24.0895C13.4825 24.2736 13.7322 24.3771 13.9926 24.3771C14.2531 24.3771 14.5028 24.2736 14.687 24.0895C14.8711 23.9053 14.9746 23.6556 14.9746 23.3952V15.4417C16.1677 15.1994 17.2283 14.5224 17.9504 13.5421C18.6725 12.5618 19.0046 11.3482 18.8823 10.1369C18.7599 8.9255 18.1918 7.80282 17.2883 6.98676C16.3847 6.1707 15.2102 5.71948 13.9926 5.72071ZM13.9926 13.576C13.41 13.576 12.8405 13.4033 12.3561 13.0796C11.8716 12.7559 11.4941 12.2958 11.2711 11.7576C11.0482 11.2193 10.9898 10.627 11.1035 10.0556C11.2172 9.48417 11.4977 8.95929 11.9097 8.54732C12.3217 8.13535 12.8465 7.8548 13.418 7.74113C13.9894 7.62747 14.5817 7.68581 15.1199 7.90876C15.6582 8.13172 16.1183 8.50928 16.4419 8.99371C16.7656 9.47813 16.9384 10.0477 16.9384 10.6303C16.9384 11.4115 16.628 12.1608 16.0756 12.7132C15.5232 13.2657 14.7739 13.576 13.9926 13.576Z" fill="#065AD8"/>
<path id="Vector_2" d="M8.4391 3.68788C8.25512 3.50499 8.00625 3.40234 7.74685 3.40234C7.48744 3.40234 7.23857 3.50499 7.0546 3.68788C5.21379 5.52924 4.17969 8.02632 4.17969 10.63C4.17969 13.2337 5.21379 15.7308 7.0546 17.5721C7.23857 17.755 7.48744 17.8577 7.74685 17.8577C8.00625 17.8577 8.25512 17.755 8.4391 17.5721C8.62198 17.3882 8.72463 17.1393 8.72463 16.8799C8.72463 16.6205 8.62198 16.3716 8.4391 16.1876C7.70874 15.4581 7.12934 14.5917 6.73402 13.6381C6.33871 12.6845 6.13524 11.6623 6.13524 10.63C6.13524 9.5977 6.33871 8.57551 6.73402 7.62189C7.12934 6.66827 7.70874 5.80192 8.4391 5.07238C8.62198 4.8884 8.72463 4.63953 8.72463 4.38013C8.72463 4.12072 8.62198 3.87185 8.4391 3.68788Z" fill="#065AD8"/>
<path id="Vector_3" d="M20.9387 3.68697C20.8506 3.58418 20.7423 3.5007 20.6205 3.44176C20.4987 3.38283 20.366 3.3497 20.2307 3.34448C20.0955 3.33926 19.9607 3.36204 19.8347 3.41141C19.7087 3.46078 19.5942 3.53565 19.4985 3.63135C19.4028 3.72704 19.328 3.84148 19.2786 3.96748C19.2292 4.09349 19.2064 4.22833 19.2117 4.36356C19.2169 4.49879 19.25 4.63148 19.3089 4.7533C19.3679 4.87512 19.4514 4.98344 19.5542 5.07147C20.2845 5.80102 20.8639 6.66737 21.2592 7.62099C21.6545 8.57461 21.858 9.59679 21.858 10.6291C21.858 11.6614 21.6545 12.6836 21.2592 13.6372C20.8639 14.5908 20.2845 15.4572 19.5542 16.1867C19.3713 16.3707 19.2686 16.6196 19.2686 16.879C19.2686 17.1384 19.3713 17.3873 19.5542 17.5712C19.7381 17.7541 19.987 17.8568 20.2464 17.8568C20.5058 17.8568 20.7547 17.7541 20.9387 17.5712C22.7795 15.7299 23.8136 13.2328 23.8136 10.6291C23.8136 8.02542 22.7795 5.52833 20.9387 3.68697Z" fill="#065AD8"/>
<path id="Vector_4" d="M2.21482 10.6295C2.2136 9.08171 2.51735 7.54882 3.10872 6.11842C3.70008 4.68803 4.56747 3.38816 5.66134 2.29308C5.84422 2.1091 5.94687 1.86024 5.94687 1.60083C5.94687 1.34142 5.84422 1.09255 5.66134 0.90858C5.47736 0.725698 5.2285 0.623047 4.96909 0.623047C4.70968 0.623047 4.46081 0.725698 4.27684 0.90858C3.00018 2.18511 1.98747 3.7006 1.29655 5.36853C0.605617 7.03646 0.25 8.82415 0.25 10.6295C0.25 12.4349 0.605617 14.2226 1.29655 15.8905C1.98747 17.5584 3.00018 19.0739 4.27684 20.3505C4.36859 20.4415 4.4774 20.5135 4.59703 20.5623C4.71667 20.6112 4.84477 20.636 4.974 20.6352C5.23159 20.6341 5.47844 20.5319 5.66134 20.3505C5.84422 20.1665 5.94687 19.9176 5.94687 19.6582C5.94687 19.3988 5.84422 19.1499 5.66134 18.966C4.56747 17.8709 3.70008 16.571 3.10872 15.1406C2.51735 13.7102 2.2136 12.1773 2.21482 10.6295Z" fill="#065AD8"/>
<path id="Vector_5" d="M23.7247 0.90858C23.5407 0.725698 23.2919 0.623047 23.0325 0.623047C22.7731 0.623047 22.5242 0.725698 22.3402 0.90858C22.1573 1.09255 22.0547 1.34142 22.0547 1.60083C22.0547 1.86024 22.1573 2.1091 22.3402 2.29308C23.4387 3.38776 24.3103 4.68851 24.905 6.12075C25.4997 7.55299 25.8058 9.08854 25.8058 10.6393C25.8058 12.1901 25.4997 13.7257 24.905 15.1579C24.3103 16.5902 23.4387 17.8909 22.3402 18.9856C22.1573 19.1696 22.0547 19.4185 22.0547 19.6779C22.0547 19.9373 22.1573 20.1861 22.3402 20.3701C22.5231 20.5515 22.77 20.6538 23.0276 20.6549C23.1568 20.6556 23.2849 20.6308 23.4045 20.582C23.5242 20.5331 23.633 20.4611 23.7247 20.3701C25.0014 19.0936 26.0141 17.5781 26.705 15.9102C27.3959 14.2422 27.7516 12.4545 27.7516 10.6492C27.7516 8.84379 27.3959 7.0561 26.705 5.38817C26.0141 3.72024 25.0014 2.20474 23.7247 0.928219V0.90858Z" fill="#065AD8"/>
</g>
</svg>
