<svg width="33" height="35" viewBox="0 0 33 35" fill="none" xmlns="http://www.w3.org/2000/svg">
<path d="M29.0249 7.9057C28.1471 7.90485 27.3055 7.55578 26.6849 6.9351C26.0642 6.31442 25.7151 5.47284 25.7143 4.59507V0H10.9208C9.77492 0 8.67599 0.455199 7.86573 1.26545C7.05548 2.07571 6.60028 3.17464 6.60028 4.32051V30.3657C6.60198 31.5104 7.05793 32.6077 7.868 33.4166C8.67807 34.2254 9.77603 34.6797 10.9208 34.6797H28.6797C29.8248 34.6797 30.923 34.2252 31.7331 33.416C32.5432 32.6068 32.9989 31.5091 33.0002 30.364V7.9057H29.0249Z" fill="#E2E5E7"/>
<path d="M32.9991 7.90569H29.0238C28.146 7.90484 27.3045 7.55577 26.6838 6.9351C26.0631 6.31442 25.714 5.47284 25.7132 4.59506V0L32.9991 7.90569Z" fill="#B0B7BD"/>
<path d="M6.60028 16.4999H26.4002V28.6999C26.4002 29.2522 25.9525 29.6999 25.4002 29.6999H6.60028V16.4999Z" fill="#CAD1D8"/>
<rect y="14.8499" width="26.3999" height="13.3663" rx="1" fill="#B31818"/>
<path d="M10.2887 21.4094C10.2745 21.2662 10.2135 21.1549 10.1058 21.0756C9.99811 20.9963 9.85192 20.9567 9.66726 20.9567C9.54179 20.9567 9.43584 20.9744 9.34943 21.0099C9.26302 21.0443 9.19673 21.0922 9.15057 21.1538C9.10559 21.2153 9.0831 21.2852 9.0831 21.3633C9.08073 21.4284 9.09434 21.4852 9.12393 21.5337C9.15471 21.5823 9.19673 21.6243 9.25 21.6598C9.30327 21.6941 9.36482 21.7243 9.43466 21.7504C9.5045 21.7752 9.57907 21.7965 9.65838 21.8143L9.98509 21.8924C10.1437 21.9279 10.2893 21.9753 10.4219 22.0344C10.5545 22.0936 10.6693 22.1664 10.7663 22.2528C10.8634 22.3393 10.9386 22.4411 10.9918 22.5582C11.0463 22.6754 11.0741 22.8098 11.0753 22.9613C11.0741 23.1838 11.0173 23.3768 10.9048 23.5401C10.7936 23.7023 10.6326 23.8284 10.4219 23.9183C10.2124 24.0071 9.95964 24.0515 9.66371 24.0515C9.37015 24.0515 9.11446 24.0065 8.89666 23.9165C8.68004 23.8266 8.51077 23.6934 8.38885 23.517C8.26811 23.3395 8.20478 23.1199 8.19886 22.8583H8.94283C8.95111 22.9802 8.98603 23.082 9.04759 23.1637C9.11032 23.2442 9.19377 23.3052 9.29794 23.3466C9.40329 23.3868 9.52225 23.407 9.65483 23.407C9.78504 23.407 9.89808 23.388 9.99396 23.3501C10.091 23.3123 10.1662 23.2596 10.2195 23.1921C10.2727 23.1246 10.2994 23.0471 10.2994 22.9595C10.2994 22.8778 10.2751 22.8092 10.2266 22.7536C10.1792 22.6979 10.1094 22.6506 10.017 22.6115C9.9259 22.5724 9.81404 22.5369 9.68146 22.505L9.28551 22.4055C8.97893 22.331 8.73686 22.2144 8.5593 22.0558C8.38175 21.8971 8.29356 21.6835 8.29474 21.4148C8.29356 21.1946 8.35215 21.0022 8.47053 20.8377C8.59008 20.6732 8.75402 20.5447 8.96236 20.4524C9.17069 20.3601 9.40743 20.3139 9.67259 20.3139C9.94247 20.3139 10.178 20.3601 10.3793 20.4524C10.5817 20.5447 10.7391 20.6732 10.8516 20.8377C10.964 21.0022 11.022 21.1928 11.0256 21.4094H10.2887ZM12.2494 20.3636L13.1283 23.1264H13.162L14.0427 20.3636H14.895L13.6414 24H12.6507L11.3953 20.3636H12.2494ZM17.5388 21.5391C17.5139 21.4527 17.479 21.3763 17.434 21.31C17.3891 21.2425 17.334 21.1857 17.2689 21.1396C17.205 21.0922 17.1316 21.0561 17.0487 21.0312C16.9671 21.0064 16.8765 20.994 16.7771 20.994C16.5912 20.994 16.4279 21.0401 16.287 21.1325C16.1473 21.2248 16.0384 21.3591 15.9603 21.5355C15.8822 21.7107 15.8431 21.925 15.8431 22.1783C15.8431 22.4316 15.8816 22.647 15.9585 22.8246C16.0355 23.0021 16.1444 23.1377 16.2852 23.2312C16.4261 23.3235 16.5924 23.3697 16.7842 23.3697C16.9582 23.3697 17.1067 23.3389 17.2298 23.2773C17.3541 23.2146 17.4488 23.1264 17.5139 23.0128C17.5802 22.8991 17.6134 22.7648 17.6134 22.6097L17.7696 22.6328H16.8321V22.054H18.3538V22.5121C18.3538 22.8317 18.2863 23.1063 18.1514 23.3359C18.0164 23.5644 17.8306 23.7408 17.5938 23.8651C17.3571 23.9882 17.086 24.0497 16.7806 24.0497C16.4397 24.0497 16.1402 23.9746 15.8822 23.8242C15.6241 23.6727 15.4229 23.4579 15.2785 23.1797C15.1353 22.9003 15.0637 22.5689 15.0637 22.1854C15.0637 21.8906 15.1063 21.6278 15.1915 21.397C15.2779 21.165 15.3986 20.9685 15.5537 20.8075C15.7088 20.6465 15.8893 20.524 16.0953 20.44C16.3012 20.3559 16.5244 20.3139 16.7646 20.3139C16.9706 20.3139 17.1624 20.3441 17.3399 20.4045C17.5175 20.4637 17.6749 20.5477 17.8122 20.6566C17.9507 20.7655 18.0638 20.8951 18.1514 21.0455C18.239 21.1946 18.2952 21.3591 18.32 21.5391H17.5388Z" fill="white"/>
</svg>
