<svg width="24" height="24" viewBox="0 0 24 24" fill="none" xmlns="http://www.w3.org/2000/svg">
<path d="M23.4219 5.56131C23.4219 5.49166 23.4045 5.42202 23.3813 5.36398C23.3754 5.34657 23.3696 5.32915 23.358 5.31174C23.3348 5.25951 23.3058 5.21888 23.2652 5.17826C23.2594 5.16665 23.2536 5.16084 23.242 5.14924C23.2013 5.10861 23.1549 5.07379 23.1027 5.05057L14.2112 0.453965C14.0429 0.366908 13.8456 0.366908 13.6773 0.453965L4.78588 5.05057C4.59435 5.14924 4.47247 5.34657 4.47247 5.56711C4.47247 5.60193 4.47828 5.63676 4.48408 5.67158V11.3419C4.48408 11.6611 4.74525 11.9223 5.06446 11.9223C5.38367 11.9223 5.64484 11.6611 5.64484 11.3419V6.52474L13.3581 10.5119V20.0998L11.0946 18.9275C11.0946 18.9275 11.0482 18.9158 11.025 18.9042C11.0424 18.7243 11.054 18.5444 11.054 18.3645C11.054 15.4742 8.70344 13.1179 5.80735 13.1179C2.91125 13.1179 0.578125 15.4742 0.578125 18.3645C0.578125 21.2548 2.92866 23.6111 5.82476 23.6111C8.12306 23.6111 10.0731 22.1253 10.7812 20.065L13.6367 21.545C13.6367 21.545 13.6483 21.5566 13.6541 21.5566C13.7063 21.5914 13.7644 21.6088 13.8282 21.6262C13.8514 21.6262 13.8746 21.632 13.8978 21.6378C13.9153 21.6378 13.9385 21.6436 13.9559 21.6436C13.9559 21.6436 13.9559 21.6436 13.9617 21.6436C13.9965 21.6436 14.0255 21.6378 14.0603 21.632C14.072 21.632 14.0778 21.632 14.0894 21.632C14.159 21.6146 14.2229 21.5914 14.2809 21.5508L23.1085 16.9716C23.3 16.8729 23.4219 16.6756 23.4219 16.455V5.56131ZM5.81896 22.4504C3.56708 22.4504 1.73308 20.6164 1.73308 18.3645C1.73308 16.1126 3.56708 14.2786 5.81896 14.2786C8.07083 14.2786 9.90483 16.1126 9.90483 18.3645C9.90483 20.6164 8.07083 22.4504 5.81896 22.4504ZM13.9501 1.62053L21.5821 5.56711L20.0092 6.38545L12.3831 2.43886L13.9501 1.62633V1.62053ZM11.1178 3.08309L18.744 7.02967L17.1015 7.88283L9.47535 3.93044L11.1178 3.07728V3.08309ZM19.4289 7.98149V11.1794L17.6703 12.0906V8.89269L19.4289 7.98149ZM13.9559 9.50209L6.32389 5.56131L8.21012 4.58627L15.8305 8.53866L13.9559 9.50789V9.50209ZM22.2611 16.0952L14.5305 20.0998V10.5178L16.5096 9.49628V13.054C16.5096 13.2571 16.614 13.4429 16.7881 13.5473C16.881 13.6054 16.9855 13.6344 17.0899 13.6344C17.1828 13.6344 17.2757 13.6112 17.3569 13.5705L20.2762 12.0558C20.4677 11.9571 20.5896 11.7598 20.5896 11.5392V7.3895L22.2611 6.52474V16.101V16.0952Z" fill="#065AD8"/>
<path d="M7.08498 16.4901C6.85864 16.2637 6.493 16.2637 6.26665 16.4901C6.0403 16.7164 6.0403 17.0821 6.26665 17.3084L6.74256 17.7843H3.48663C3.16742 17.7843 2.90625 18.0687 2.90625 18.3647C2.90625 18.6839 3.16742 18.9451 3.48663 18.9451H6.74256L6.27245 19.421C6.0461 19.6473 6.0461 20.013 6.27245 20.2393C6.4988 20.4657 6.86444 20.4657 7.09079 20.2393L8.55335 18.7768C8.66942 18.6607 8.72166 18.5156 8.72166 18.3647C8.72166 18.2138 8.66362 18.0687 8.55335 17.9526L7.08498 16.4843V16.4901Z" fill="#065AD8"/>
</svg>
